<?xml version="1.0" encoding="UTF-8"?>
<svg id="Layer_1" data-name="Layer 1" xmlns="http://www.w3.org/2000/svg" viewBox="0 0 595.28 140.16">
  <defs>
    <style>
      .cls-1 {
        fill: #231f20;
      }
    </style>
  </defs>
  <rect class="cls-1" x="33.61" y="129.76" width="523.9" height="2"/>
  <g>
    <path class="cls-1" d="M57.15,40.13h-3.62l-1.44-3.74h-6.58l-1.36,3.74h-3.53l6.41-16.46h3.52l6.59,16.46ZM51.03,33.61l-2.27-6.11-2.22,6.11h4.49Z"/>
    <path class="cls-1" d="M58.92,40.13v-16.46h5.33c2.02,0,3.34.08,3.95.25.94.25,1.73.78,2.37,1.61.64.83.96,1.9.96,3.21,0,1.01-.18,1.86-.55,2.55-.37.69-.83,1.23-1.4,1.62-.57.39-1.14.65-1.72.78-.79.16-1.94.24-3.45.24h-2.17v6.21h-3.32ZM62.24,26.45v4.67h1.82c1.31,0,2.19-.09,2.63-.26.44-.17.79-.44,1.04-.81s.38-.79.38-1.28c0-.6-.18-1.09-.53-1.48s-.8-.63-1.34-.73c-.4-.07-1.19-.11-2.39-.11h-1.61Z"/>
    <path class="cls-1" d="M74.35,40.13v-16.33h3.32v13.56h8.27v2.77h-11.59Z"/>
    <path class="cls-1" d="M88.2,40.13v-16.46h3.32v16.46h-3.32Z"/>
    <path class="cls-1" d="M94.74,40.13v-16.46h3.32v7.31l6.71-7.31h4.47l-6.2,6.41,6.54,10.05h-4.3l-4.53-7.73-2.7,2.75v4.98h-3.32Z"/>
    <path class="cls-1" d="M126.15,40.13h-3.62l-1.44-3.74h-6.58l-1.36,3.74h-3.53l6.41-16.46h3.52l6.59,16.46ZM120.03,33.61l-2.27-6.11-2.22,6.11h4.49Z"/>
    <path class="cls-1" d="M127.07,34.77l3.23-.31c.19,1.09.59,1.88,1.18,2.39.6.51,1.4.76,2.41.76,1.07,0,1.88-.23,2.42-.68.54-.45.81-.98.81-1.59,0-.39-.11-.72-.34-.99-.23-.27-.63-.51-1.2-.71-.39-.13-1.28-.37-2.66-.72-1.78-.44-3.03-.98-3.75-1.63-1.01-.91-1.52-2.01-1.52-3.31,0-.84.24-1.62.71-2.35.48-.73,1.16-1.29,2.05-1.67s1.97-.57,3.24-.57c2.07,0,3.62.45,4.67,1.36,1.04.91,1.59,2.12,1.65,3.63l-3.32.15c-.14-.85-.45-1.45-.92-1.83-.47-.37-1.17-.56-2.11-.56s-1.72.2-2.27.6c-.35.25-.53.6-.53,1.02,0,.39.17.72.49,1,.42.35,1.44.72,3.05,1.1s2.81.78,3.59,1.19c.78.41,1.38.97,1.82,1.67.44.71.66,1.58.66,2.62,0,.94-.26,1.83-.79,2.65s-1.27,1.44-2.22,1.84c-.96.4-2.15.6-3.58.6-2.08,0-3.68-.48-4.79-1.44-1.12-.96-1.78-2.36-2-4.21Z"/>
    <path class="cls-1" d="M143.16,40.13v-16.46h3.32v16.46h-3.32Z"/>
    <path class="cls-1" d="M155.99,40.13v-16.46h4.97l2.99,11.23,2.95-11.23h4.99v16.46h-3.09v-12.96l-3.27,12.96h-3.2l-3.26-12.96v12.96h-3.09Z"/>
    <path class="cls-1" d="M190.04,40.13h-3.62l-1.44-3.74h-6.58l-1.36,3.74h-3.53l6.41-16.46h3.52l6.59,16.46ZM183.92,33.61l-2.27-6.11-2.22,6.11h4.49Z"/>
    <path class="cls-1" d="M191.84,40.13v-16.46h3.23l6.74,10.99v-10.99h3.09v16.46h-3.33l-6.64-10.74v10.74h-3.09Z"/>
    <path class="cls-1" d="M223.26,40.13h-3.62l-1.44-3.74h-6.58l-1.36,3.74h-3.53l6.41-16.46h3.52l6.59,16.46ZM217.14,33.61l-2.27-6.11-2.22,6.11h4.49Z"/>
    <path class="cls-1" d="M230.97,23.66h3.31v10.42c0,1.36-.12,2.41-.36,3.14-.32.96-.91,1.73-1.75,2.31-.85.58-1.96.87-3.35.87-1.62,0-2.88-.45-3.75-1.36-.88-.91-1.32-2.24-1.33-4l3.13-.36c.04.94.18,1.61.42,2,.36.59.91.89,1.64.89s1.26-.21,1.57-.63c.31-.42.46-1.3.46-2.63v-10.64Z"/>
    <path class="cls-1" d="M237.82,40.13v-16.46h12.21v2.79h-8.88v3.65h8.27v2.77h-8.27v4.48h9.2v2.77h-12.52Z"/>
    <path class="cls-1" d="M253.11,40.13v-16.46h4.97l2.99,11.23,2.95-11.23h4.99v16.46h-3.09v-12.96l-3.27,12.96h-3.2l-3.26-12.96v12.96h-3.09Z"/>
    <path class="cls-1" d="M272.32,40.13v-16.46h12.21v2.79h-8.88v3.65h8.27v2.77h-8.27v4.48h9.2v2.77h-12.52Z"/>
    <path class="cls-1" d="M287.69,40.13v-16.46h3.23l6.74,10.99v-10.99h3.09v16.46h-3.33l-6.64-10.74v10.74h-3.09Z"/>
    <path class="cls-1" d="M310.66,40.13v-16.46h5.33c2.02,0,3.34.08,3.95.25.94.25,1.73.78,2.37,1.61.64.83.96,1.9.96,3.21,0,1.01-.18,1.86-.55,2.55-.37.69-.83,1.23-1.4,1.62-.57.39-1.14.65-1.72.78-.79.16-1.94.24-3.45.24h-2.17v6.21h-3.32ZM313.98,26.45v4.67h1.82c1.31,0,2.19-.09,2.63-.26.44-.17.79-.44,1.04-.81s.38-.79.38-1.28c0-.6-.18-1.09-.53-1.48s-.8-.63-1.34-.73c-.4-.07-1.19-.11-2.39-.11h-1.61Z"/>
    <path class="cls-1" d="M326,40.13v-16.46h12.21v2.79h-8.88v3.65h8.27v2.77h-8.27v4.48h9.2v2.77h-12.52Z"/>
    <path class="cls-1" d="M341.35,40.13v-16.46h7c1.76,0,3.04.15,3.83.44.8.3,1.44.82,1.92,1.58.48.76.72,1.62.72,2.59,0,1.24-.36,2.26-1.09,3.06-.73.81-1.81,1.31-3.26,1.52.72.42,1.31.88,1.78,1.38s1.1,1.39,1.89,2.67l2.01,3.21h-3.98l-2.4-3.58c-.85-1.28-1.44-2.09-1.75-2.42-.31-.33-.65-.56-1-.68-.35-.12-.91-.19-1.67-.19h-.67v6.87h-3.32ZM344.68,30.62h2.46c1.59,0,2.59-.07,2.99-.2.4-.13.71-.37.93-.7s.34-.74.34-1.24c0-.55-.15-1-.44-1.34-.3-.34-.71-.56-1.25-.65-.27-.04-1.08-.06-2.43-.06h-2.59v4.18Z"/>
    <path class="cls-1" d="M357.99,40.13v-16.46h3.32v7.31l6.71-7.31h4.47l-6.2,6.41,6.54,10.05h-4.3l-4.53-7.73-2.7,2.75v4.98h-3.32Z"/>
    <path class="cls-1" d="M374.56,40.13v-16.46h12.21v2.79h-8.88v3.65h8.27v2.77h-8.27v4.48h9.2v2.77h-12.52Z"/>
    <path class="cls-1" d="M389.91,23.66h6.58c1.3,0,2.27.05,2.91.16.64.11,1.21.33,1.72.68.5.34.93.8,1.26,1.38.34.57.5,1.21.5,1.93,0,.77-.21,1.48-.62,2.12-.42.64-.98,1.13-1.69,1.45,1,.29,1.77.79,2.31,1.49s.81,1.53.81,2.48c0,.75-.17,1.48-.52,2.18-.35.71-.82,1.27-1.43,1.7-.6.42-1.35.68-2.23.78-.55.06-1.89.1-4.01.11h-5.6v-16.46ZM393.24,26.4v3.81h2.18c1.29,0,2.1-.02,2.41-.06.57-.07,1.02-.26,1.34-.59s.49-.75.49-1.29-.14-.92-.42-1.24c-.28-.32-.7-.51-1.25-.58-.33-.04-1.28-.06-2.84-.06h-1.91ZM393.24,32.95v4.4h3.08c1.2,0,1.96-.03,2.28-.1.49-.09.9-.31,1.21-.66.31-.35.47-.81.47-1.4,0-.49-.12-.91-.36-1.26s-.59-.6-1.04-.75-1.44-.24-2.95-.24h-2.68Z"/>
    <path class="cls-1" d="M406.49,23.66h3.32v8.92c0,1.42.04,2.33.12,2.75.14.67.48,1.21,1.02,1.62.54.41,1.27.61,2.2.61s1.65-.19,2.13-.58c.48-.39.77-.86.86-1.42.1-.56.15-1.49.15-2.8v-9.11h3.32v8.65c0,1.98-.09,3.37-.27,4.19s-.51,1.5-.99,2.07c-.48.56-1.13,1.01-1.94,1.34-.81.33-1.86.5-3.17.5-1.57,0-2.76-.18-3.58-.54-.81-.36-1.45-.83-1.93-1.42-.47-.58-.78-1.19-.93-1.83-.22-.94-.33-2.34-.33-4.18v-8.78Z"/>
    <path class="cls-1" d="M423.15,40.13v-16.46h3.23l6.74,10.99v-10.99h3.09v16.46h-3.33l-6.64-10.74v10.74h-3.09Z"/>
    <path class="cls-1" d="M454.58,40.13h-3.62l-1.44-3.74h-6.58l-1.36,3.74h-3.53l6.41-16.46h3.52l6.59,16.46ZM448.46,33.61l-2.27-6.11-2.22,6.11h4.49Z"/>
    <path class="cls-1" d="M456.37,40.13v-16.46h3.23l6.74,10.99v-10.99h3.09v16.46h-3.33l-6.64-10.74v10.74h-3.09Z"/>
    <path class="cls-1" d="M478.5,34.77l3.23-.31c.19,1.09.59,1.88,1.18,2.39.6.51,1.4.76,2.41.76,1.07,0,1.88-.23,2.42-.68.54-.45.81-.98.81-1.59,0-.39-.11-.72-.34-.99-.23-.27-.63-.51-1.2-.71-.39-.13-1.28-.37-2.66-.72-1.78-.44-3.03-.98-3.75-1.63-1.01-.91-1.52-2.01-1.52-3.31,0-.84.24-1.62.71-2.35.48-.73,1.16-1.29,2.05-1.67s1.97-.57,3.24-.57c2.07,0,3.62.45,4.67,1.36,1.04.91,1.59,2.12,1.65,3.63l-3.32.15c-.14-.85-.45-1.45-.92-1.83-.47-.37-1.17-.56-2.11-.56s-1.72.2-2.27.6c-.35.25-.53.6-.53,1.02,0,.39.17.72.49,1,.42.35,1.44.72,3.05,1.1s2.81.78,3.59,1.19c.78.41,1.38.97,1.82,1.67.44.71.66,1.58.66,2.62,0,.94-.26,1.83-.79,2.65s-1.27,1.44-2.22,1.84c-.96.4-2.15.6-3.58.6-2.08,0-3.68-.48-4.79-1.44-1.12-.96-1.78-2.36-2-4.21Z"/>
    <path class="cls-1" d="M509.53,40.13h-3.62l-1.44-3.74h-6.58l-1.36,3.74h-3.53l6.41-16.46h3.52l6.59,16.46ZM503.41,33.61l-2.27-6.11-2.22,6.11h4.49Z"/>
    <path class="cls-1" d="M512.36,40.13l-3.93-16.46h3.4l2.48,11.31,3.01-11.31h3.95l2.89,11.5,2.53-11.5h3.35l-4,16.46h-3.53l-3.28-12.31-3.27,12.31h-3.6Z"/>
    <path class="cls-1" d="M531.63,40.13v-16.46h3.32v16.46h-3.32Z"/>
    <path class="cls-1" d="M541.82,40.13v-13.68h-4.88v-2.79h13.08v2.79h-4.88v13.68h-3.32Z"/>
    <path class="cls-1" d="M36.58,57.21h6.58c1.3,0,2.27.05,2.91.16.64.11,1.21.33,1.72.68.5.34.93.8,1.26,1.38.34.57.5,1.21.5,1.93,0,.77-.21,1.48-.62,2.12-.42.64-.98,1.13-1.69,1.45,1,.29,1.77.79,2.31,1.49s.81,1.53.81,2.48c0,.75-.17,1.48-.52,2.18-.35.71-.82,1.27-1.43,1.7-.6.42-1.35.68-2.23.78-.55.06-1.89.1-4.01.11h-5.6v-16.46ZM39.9,59.95v3.81h2.18c1.29,0,2.1-.02,2.41-.06.57-.07,1.02-.26,1.34-.59s.49-.75.49-1.29-.14-.92-.42-1.24c-.28-.32-.7-.51-1.25-.58-.33-.04-1.28-.06-2.84-.06h-1.91ZM39.9,66.5v4.4h3.08c1.2,0,1.96-.03,2.28-.1.49-.09.9-.31,1.21-.66.31-.35.47-.81.47-1.4,0-.49-.12-.91-.36-1.26s-.59-.6-1.04-.75-1.44-.24-2.95-.24h-2.68Z"/>
    <path class="cls-1" d="M53.18,73.67v-16.46h12.21v2.79h-8.88v3.65h8.27v2.77h-8.27v4.48h9.2v2.77h-12.52Z"/>
    <path class="cls-1" d="M68.53,73.67v-16.46h7c1.76,0,3.04.15,3.83.44.8.3,1.44.82,1.92,1.58.48.76.72,1.62.72,2.59,0,1.24-.36,2.26-1.09,3.06-.73.81-1.81,1.31-3.26,1.52.72.42,1.31.88,1.78,1.38s1.1,1.39,1.89,2.67l2.01,3.21h-3.98l-2.4-3.58c-.85-1.28-1.44-2.09-1.75-2.42-.31-.33-.65-.56-1-.68-.35-.12-.91-.19-1.67-.19h-.67v6.87h-3.32ZM71.85,64.17h2.46c1.59,0,2.59-.07,2.99-.2.4-.13.71-.37.93-.7s.34-.74.34-1.24c0-.55-.15-1-.44-1.34-.3-.34-.71-.56-1.25-.65-.27-.04-1.08-.06-2.43-.06h-2.59v4.18Z"/>
    <path class="cls-1" d="M85.14,57.21h6.58c1.3,0,2.27.05,2.91.16.64.11,1.21.33,1.72.68.5.34.93.8,1.26,1.38.34.57.5,1.21.5,1.93,0,.77-.21,1.48-.62,2.12-.42.64-.98,1.13-1.69,1.45,1,.29,1.77.79,2.31,1.49s.81,1.53.81,2.48c0,.75-.17,1.48-.52,2.18-.35.71-.82,1.27-1.43,1.7-.6.42-1.35.68-2.23.78-.55.06-1.89.1-4.01.11h-5.6v-16.46ZM88.46,59.95v3.81h2.18c1.29,0,2.1-.02,2.41-.06.57-.07,1.02-.26,1.34-.59s.49-.75.49-1.29-.14-.92-.42-1.24c-.28-.32-.7-.51-1.25-.58-.33-.04-1.28-.06-2.84-.06h-1.91ZM88.46,66.5v4.4h3.08c1.2,0,1.96-.03,2.28-.1.49-.09.9-.31,1.21-.66.31-.35.47-.81.47-1.4,0-.49-.12-.91-.36-1.26s-.59-.6-1.04-.75-1.44-.24-2.95-.24h-2.68Z"/>
    <path class="cls-1" d="M116.58,73.67h-3.62l-1.44-3.74h-6.58l-1.36,3.74h-3.53l6.41-16.46h3.52l6.59,16.46ZM110.46,67.16l-2.27-6.11-2.22,6.11h4.49Z"/>
    <path class="cls-1" d="M117.51,68.32l3.23-.31c.19,1.09.59,1.88,1.18,2.39.6.51,1.4.76,2.41.76,1.07,0,1.88-.23,2.42-.68.54-.45.81-.98.81-1.59,0-.39-.11-.72-.34-.99-.23-.27-.63-.51-1.2-.71-.39-.13-1.28-.37-2.66-.72-1.78-.44-3.03-.98-3.75-1.63-1.01-.91-1.52-2.01-1.52-3.31,0-.84.24-1.62.71-2.35.48-.73,1.16-1.29,2.05-1.67s1.97-.57,3.24-.57c2.07,0,3.62.45,4.67,1.36,1.04.91,1.59,2.12,1.65,3.63l-3.32.15c-.14-.85-.45-1.45-.92-1.83-.47-.37-1.17-.56-2.11-.56s-1.72.2-2.27.6c-.35.25-.53.6-.53,1.02,0,.39.17.72.49,1,.42.35,1.44.72,3.05,1.1s2.81.78,3.59,1.19c.78.41,1.38.97,1.82,1.67.44.71.66,1.58.66,2.62,0,.94-.26,1.83-.79,2.65s-1.27,1.44-2.22,1.84c-.96.4-2.15.6-3.58.6-2.08,0-3.68-.48-4.79-1.44-1.12-.96-1.78-2.36-2-4.21Z"/>
    <path class="cls-1" d="M133.59,73.67v-16.46h3.32v16.46h-3.32Z"/>
    <path class="cls-1" d="M139.24,68.32l3.23-.31c.19,1.09.59,1.88,1.18,2.39.6.51,1.4.76,2.41.76,1.07,0,1.88-.23,2.42-.68.54-.45.81-.98.81-1.59,0-.39-.11-.72-.34-.99-.23-.27-.63-.51-1.2-.71-.39-.13-1.28-.37-2.66-.72-1.78-.44-3.03-.98-3.75-1.63-1.01-.91-1.52-2.01-1.52-3.31,0-.84.24-1.62.71-2.35.48-.73,1.16-1.29,2.05-1.67s1.97-.57,3.24-.57c2.07,0,3.62.45,4.67,1.36,1.04.91,1.59,2.12,1.65,3.63l-3.32.15c-.14-.85-.45-1.45-.92-1.83-.47-.37-1.17-.56-2.11-.56s-1.72.2-2.27.6c-.35.25-.53.6-.53,1.02,0,.39.17.72.49,1,.42.35,1.44.72,3.05,1.1s2.81.78,3.59,1.19c.78.41,1.38.97,1.82,1.67.44.71.66,1.58.66,2.62,0,.94-.26,1.83-.79,2.65s-1.27,1.44-2.22,1.84c-.96.4-2.15.6-3.58.6-2.08,0-3.68-.48-4.79-1.44-1.12-.96-1.78-2.36-2-4.21Z"/>
    <path class="cls-1" d="M164.15,73.67l-3.93-16.46h3.4l2.48,11.31,3.01-11.31h3.95l2.89,11.5,2.53-11.5h3.35l-4,16.46h-3.53l-3.28-12.31-3.27,12.31h-3.6Z"/>
    <path class="cls-1" d="M183.52,73.67v-16.46h12.21v2.79h-8.88v3.65h8.27v2.77h-8.27v4.48h9.2v2.77h-12.52Z"/>
    <path class="cls-1" d="M198.87,57.21h6.58c1.3,0,2.27.05,2.91.16.64.11,1.21.33,1.72.68.5.34.93.8,1.26,1.38.34.57.5,1.21.5,1.93,0,.77-.21,1.48-.62,2.12-.42.64-.98,1.13-1.69,1.45,1,.29,1.77.79,2.31,1.49s.81,1.53.81,2.48c0,.75-.17,1.48-.52,2.18-.35.71-.82,1.27-1.43,1.7-.6.42-1.35.68-2.23.78-.55.06-1.89.1-4.01.11h-5.6v-16.46ZM202.19,59.95v3.81h2.18c1.29,0,2.1-.02,2.41-.06.57-.07,1.02-.26,1.34-.59s.49-.75.49-1.29-.14-.92-.42-1.24c-.28-.32-.7-.51-1.25-.58-.33-.04-1.28-.06-2.84-.06h-1.91ZM202.19,66.5v4.4h3.08c1.2,0,1.96-.03,2.28-.1.49-.09.9-.31,1.21-.66.31-.35.47-.81.47-1.4,0-.49-.12-.91-.36-1.26s-.59-.6-1.04-.75-1.44-.24-2.95-.24h-2.68Z"/>
    <path class="cls-1" d="M221.85,57.21h6.08c1.37,0,2.41.1,3.13.31.97.28,1.79.79,2.48,1.52.69.73,1.21,1.62,1.57,2.67.36,1.05.54,2.35.54,3.89,0,1.35-.17,2.52-.51,3.5-.41,1.2-1,2.17-1.76,2.91-.58.56-1.35,1-2.34,1.31-.73.23-1.71.35-2.94.35h-6.26v-16.46ZM225.17,60v10.9h2.48c.93,0,1.6-.05,2.01-.16.54-.13.99-.36,1.34-.69s.65-.85.87-1.59c.22-.74.34-1.74.34-3.02s-.11-2.25-.34-2.93-.54-1.21-.94-1.59-.92-.64-1.54-.77c-.46-.1-1.37-.16-2.73-.16h-1.49Z"/>
    <path class="cls-1" d="M238.37,73.67v-16.46h3.32v16.46h-3.32Z"/>
    <path class="cls-1" d="M251.25,73.67v-16.46h5.33c2.02,0,3.34.08,3.95.25.94.25,1.73.78,2.37,1.61.64.83.96,1.9.96,3.21,0,1.01-.18,1.86-.55,2.55-.37.69-.83,1.23-1.4,1.62-.57.39-1.14.65-1.72.78-.79.16-1.94.24-3.45.24h-2.17v6.21h-3.32ZM254.57,60v4.67h1.82c1.31,0,2.19-.09,2.63-.26.44-.17.79-.44,1.04-.81s.38-.79.38-1.28c0-.6-.18-1.09-.53-1.48s-.8-.63-1.34-.73c-.4-.07-1.19-.11-2.39-.11h-1.61Z"/>
    <path class="cls-1" d="M270.3,73.67v-13.68h-4.88v-2.79h13.08v2.79h-4.88v13.68h-3.32Z"/>
    <path class="cls-1" d="M290.74,73.67v-13.68h-4.88v-2.79h13.08v2.79h-4.88v13.68h-3.32Z"/>
    <path class="cls-1" d="M314.22,73.67h-3.62l-1.44-3.74h-6.58l-1.36,3.74h-3.53l6.41-16.46h3.52l6.59,16.46ZM308.1,67.16l-2.27-6.11-2.22,6.11h4.49Z"/>
    <path class="cls-1" d="M315.14,68.32l3.23-.31c.19,1.09.59,1.88,1.18,2.39.6.51,1.4.76,2.41.76,1.07,0,1.88-.23,2.42-.68.54-.45.81-.98.81-1.59,0-.39-.11-.72-.34-.99-.23-.27-.63-.51-1.2-.71-.39-.13-1.28-.37-2.66-.72-1.78-.44-3.03-.98-3.75-1.63-1.01-.91-1.52-2.01-1.52-3.31,0-.84.24-1.62.71-2.35.48-.73,1.16-1.29,2.05-1.67s1.97-.57,3.24-.57c2.07,0,3.62.45,4.67,1.36,1.04.91,1.59,2.12,1.65,3.63l-3.32.15c-.14-.85-.45-1.45-.92-1.83-.47-.37-1.17-.56-2.11-.56s-1.72.2-2.27.6c-.35.25-.53.6-.53,1.02,0,.39.17.72.49,1,.42.35,1.44.72,3.05,1.1s2.81.78,3.59,1.19c.78.41,1.38.97,1.82,1.67.44.71.66,1.58.66,2.62,0,.94-.26,1.83-.79,2.65s-1.27,1.44-2.22,1.84c-.96.4-2.15.6-3.58.6-2.08,0-3.68-.48-4.79-1.44-1.12-.96-1.78-2.36-2-4.21Z"/>
    <path class="cls-1" d="M331.36,73.67v-16.46h3.23l6.74,10.99v-10.99h3.09v16.46h-3.33l-6.64-10.74v10.74h-3.09Z"/>
    <path class="cls-1" d="M347.83,73.67v-16.46h3.32v16.46h-3.32Z"/>
    <path class="cls-1" d="M354.31,57.21h6.08c1.37,0,2.41.1,3.13.31.97.28,1.79.79,2.48,1.52.69.73,1.21,1.62,1.57,2.67.36,1.05.54,2.35.54,3.89,0,1.35-.17,2.52-.51,3.5-.41,1.2-1,2.17-1.76,2.91-.58.56-1.35,1-2.34,1.31-.73.23-1.71.35-2.94.35h-6.26v-16.46ZM357.64,60v10.9h2.48c.93,0,1.6-.05,2.01-.16.54-.13.99-.36,1.34-.69s.65-.85.87-1.59c.22-.74.34-1.74.34-3.02s-.11-2.25-.34-2.93-.54-1.21-.94-1.59-.92-.64-1.54-.77c-.46-.1-1.37-.16-2.73-.16h-1.49Z"/>
    <path class="cls-1" d="M385.78,73.67h-3.62l-1.44-3.74h-6.58l-1.36,3.74h-3.53l6.41-16.46h3.52l6.59,16.46ZM379.66,67.16l-2.27-6.11-2.22,6.11h4.49Z"/>
    <path class="cls-1" d="M407.07,73.67h-3.62l-1.44-3.74h-6.58l-1.36,3.74h-3.53l6.41-16.46h3.52l6.59,16.46ZM400.95,67.16l-2.27-6.11-2.22,6.11h4.49Z"/>
    <path class="cls-1" d="M408.85,73.67v-16.46h7c1.76,0,3.04.15,3.83.44.8.3,1.44.82,1.92,1.58.48.76.72,1.62.72,2.59,0,1.24-.36,2.26-1.09,3.06-.73.81-1.81,1.31-3.26,1.52.72.42,1.31.88,1.78,1.38s1.1,1.39,1.89,2.67l2.01,3.21h-3.98l-2.4-3.58c-.85-1.28-1.44-2.09-1.75-2.42-.31-.33-.65-.56-1-.68-.35-.12-.91-.19-1.67-.19h-.67v6.87h-3.32ZM412.17,64.17h2.46c1.59,0,2.59-.07,2.99-.2.4-.13.71-.37.93-.7s.34-.74.34-1.24c0-.55-.15-1-.44-1.34-.3-.34-.71-.56-1.25-.65-.27-.04-1.08-.06-2.43-.06h-2.59v4.18Z"/>
    <path class="cls-1" d="M433.1,67.62v-2.77h7.17v6.56c-.7.67-1.71,1.27-3.03,1.78-1.32.51-2.66.77-4.01.77-1.72,0-3.22-.36-4.5-1.08-1.28-.72-2.24-1.76-2.89-3.1-.64-1.34-.97-2.81-.97-4.39,0-1.71.36-3.24,1.08-4.57s1.77-2.35,3.16-3.07c1.06-.55,2.37-.82,3.94-.82,2.04,0,3.64.43,4.79,1.29,1.15.86,1.89,2.04,2.22,3.55l-3.3.62c-.23-.81-.67-1.45-1.31-1.91-.64-.47-1.44-.7-2.4-.7-1.45,0-2.61.46-3.46,1.38s-1.29,2.29-1.29,4.1c0,1.95.43,3.42,1.3,4.4.87.98,2.01,1.47,3.41,1.47.7,0,1.39-.14,2.09-.41.7-.27,1.3-.6,1.8-.99v-2.09h-3.81Z"/>
    <path class="cls-1" d="M442.66,65.54c0-1.68.25-3.08.75-4.22.37-.84.89-1.59,1.53-2.26s1.36-1.16,2.13-1.48c1.03-.43,2.21-.65,3.55-.65,2.43,0,4.37.75,5.82,2.26s2.18,3.6,2.18,6.28-.72,4.74-2.17,6.24c-1.45,1.5-3.38,2.25-5.79,2.25s-4.39-.75-5.84-2.24c-1.45-1.49-2.17-3.55-2.17-6.17ZM446.09,65.43c0,1.86.43,3.28,1.29,4.24.86.96,1.95,1.44,3.28,1.44s2.41-.48,3.26-1.43c.85-.96,1.28-2.39,1.28-4.3s-.41-3.29-1.24-4.22-1.93-1.39-3.3-1.39-2.47.47-3.31,1.41c-.84.94-1.26,2.36-1.26,4.25Z"/>
    <path class="cls-1" d="M461.32,73.67v-16.33h3.32v13.56h8.27v2.77h-11.59Z"/>
    <path class="cls-1" d="M475.28,73.67v-16.46h12.21v2.79h-8.88v3.65h8.27v2.77h-8.27v4.48h9.2v2.77h-12.52Z"/>
    <path class="cls-1" d="M489.77,68.32l3.23-.31c.19,1.09.59,1.88,1.18,2.39.6.51,1.4.76,2.41.76,1.07,0,1.88-.23,2.42-.68.54-.45.81-.98.81-1.59,0-.39-.11-.72-.34-.99-.23-.27-.63-.51-1.2-.71-.39-.13-1.28-.37-2.66-.72-1.78-.44-3.03-.98-3.75-1.63-1.01-.91-1.52-2.01-1.52-3.31,0-.84.24-1.62.71-2.35.48-.73,1.16-1.29,2.05-1.67s1.97-.57,3.24-.57c2.07,0,3.62.45,4.67,1.36,1.04.91,1.59,2.12,1.65,3.63l-3.32.15c-.14-.85-.45-1.45-.92-1.83-.47-.37-1.17-.56-2.11-.56s-1.72.2-2.27.6c-.35.25-.53.6-.53,1.02,0,.39.17.72.49,1,.42.35,1.44.72,3.05,1.1s2.81.78,3.59,1.19c.78.41,1.38.97,1.82,1.67.44.71.66,1.58.66,2.62,0,.94-.26,1.83-.79,2.65s-1.27,1.44-2.22,1.84c-.96.4-2.15.6-3.58.6-2.08,0-3.68-.48-4.79-1.44-1.12-.96-1.78-2.36-2-4.21Z"/>
    <path class="cls-1" d="M509.66,73.67v-13.68h-4.88v-2.79h13.08v2.79h-4.88v13.68h-3.32Z"/>
    <path class="cls-1" d="M533.14,73.67h-3.62l-1.44-3.74h-6.58l-1.36,3.74h-3.53l6.41-16.46h3.52l6.59,16.46ZM527.02,67.16l-2.27-6.11-2.22,6.11h4.49Z"/>
    <path class="cls-1" d="M534.92,73.67v-16.46h7c1.76,0,3.04.15,3.83.44.8.3,1.44.82,1.92,1.58.48.76.72,1.62.72,2.59,0,1.24-.36,2.26-1.09,3.06-.73.81-1.81,1.31-3.26,1.52.72.42,1.31.88,1.78,1.38s1.1,1.39,1.89,2.67l2.01,3.21h-3.98l-2.4-3.58c-.85-1.28-1.44-2.09-1.75-2.42-.31-.33-.65-.56-1-.68-.35-.12-.91-.19-1.67-.19h-.67v6.87h-3.32ZM538.24,64.17h2.46c1.59,0,2.59-.07,2.99-.2.4-.13.71-.37.93-.7s.34-.74.34-1.24c0-.55-.15-1-.44-1.34-.3-.34-.71-.56-1.25-.65-.27-.04-1.08-.06-2.43-.06h-2.59v4.18Z"/>
    <path class="cls-1" d="M551.42,73.67v-16.46h3.32v16.46h-3.32Z"/>
    <path class="cls-1" d="M101.8,97.07l1.2-.16c.03.77.18,1.29.43,1.57s.61.42,1.06.42c.33,0,.62-.08.86-.23s.41-.36.5-.62.14-.68.14-1.25v-6.9h1.33v6.83c0,.84-.1,1.49-.3,1.95-.2.46-.52.81-.96,1.05-.44.24-.96.36-1.55.36-.88,0-1.55-.25-2.02-.76-.47-.51-.69-1.26-.67-2.26Z"/>
    <path class="cls-1" d="M109.29,99.91v-10.02h1.23v10.02h-1.23Z"/>
    <path class="cls-1" d="M112.78,99.91v-1.4h1.4v1.4h-1.4Z"/>
    <path class="cls-1" d="M120.36,99.91v-10.02h3.45c.78,0,1.37.05,1.78.14.57.13,1.06.37,1.47.72.53.45.92,1.02,1.19,1.71.26.69.39,1.49.39,2.38,0,.76-.09,1.44-.27,2.02s-.41,1.07-.68,1.46-.58.69-.91.91c-.33.22-.73.39-1.2.5-.47.11-1,.17-1.61.17h-3.62ZM121.69,98.73h2.14c.66,0,1.18-.06,1.56-.18.38-.12.67-.3.9-.52.31-.31.56-.74.73-1.27.18-.53.26-1.17.26-1.93,0-1.05-.17-1.85-.52-2.42-.34-.56-.76-.94-1.25-1.13-.36-.14-.93-.21-1.72-.21h-2.11v7.66Z"/>
    <path class="cls-1" d="M135.29,97.57l1.27.16c-.2.74-.57,1.32-1.11,1.73s-1.24.62-2.08.62c-1.06,0-1.9-.33-2.53-.98-.62-.65-.93-1.57-.93-2.75s.31-2.17.94-2.84,1.44-1.01,2.45-1.01,1.76.33,2.38.99.92,1.59.92,2.79c0,.07,0,.18,0,.33h-5.41c.05.8.27,1.41.68,1.83s.91.64,1.52.64c.45,0,.84-.12,1.16-.36s.57-.62.76-1.13ZM131.25,95.59h4.05c-.05-.61-.21-1.07-.46-1.37-.39-.47-.9-.71-1.52-.71-.57,0-1.04.19-1.42.57-.39.38-.6.88-.64,1.52Z"/>
    <path class="cls-1" d="M137.61,97.75l1.22-.19c.07.49.26.86.57,1.12.31.26.75.39,1.31.39s.98-.12,1.26-.35.41-.5.41-.81c0-.28-.12-.5-.36-.66-.17-.11-.59-.25-1.26-.42-.9-.23-1.53-.42-1.88-.59-.35-.17-.61-.4-.79-.69-.18-.29-.27-.62-.27-.97,0-.32.07-.62.22-.9.15-.28.35-.5.61-.69.19-.14.45-.26.78-.36.33-.1.68-.15,1.06-.15.57,0,1.07.08,1.5.25.43.16.75.39.95.67s.35.66.42,1.12l-1.2.16c-.05-.37-.21-.67-.48-.88-.26-.21-.63-.31-1.11-.31-.57,0-.97.09-1.21.28s-.36.41-.36.66c0,.16.05.3.15.43.1.13.26.24.47.33.12.05.49.15,1.09.31.87.23,1.48.42,1.82.57.34.15.61.36.81.65s.29.63.29,1.05-.12.8-.36,1.16c-.24.36-.58.64-1.04.84s-.96.3-1.53.3c-.94,0-1.66-.2-2.16-.59-.49-.39-.81-.97-.95-1.74Z"/>
    <path class="cls-1" d="M149.84,99.02c-.46.39-.89.66-1.32.82-.42.16-.87.24-1.36.24-.8,0-1.41-.19-1.84-.58s-.64-.89-.64-1.49c0-.36.08-.68.24-.97.16-.29.37-.53.64-.71.26-.18.56-.31.88-.4.24-.06.61-.13,1.09-.18.99-.12,1.72-.26,2.19-.42,0-.17,0-.28,0-.32,0-.5-.12-.85-.35-1.06-.31-.28-.78-.42-1.4-.42-.58,0-1.01.1-1.28.3-.28.2-.48.56-.61,1.08l-1.2-.16c.11-.52.29-.93.54-1.25s.61-.56,1.09-.73,1.02-.26,1.65-.26,1.12.07,1.51.22.67.33.85.55.31.5.38.84c.04.21.06.59.06,1.13v1.64c0,1.14.03,1.87.08,2.17.05.3.16.59.31.87h-1.29c-.13-.26-.21-.55-.25-.9ZM149.74,96.27c-.45.18-1.12.34-2.01.46-.51.07-.86.15-1.07.25s-.37.22-.49.4-.17.37-.17.58c0,.33.12.6.37.82.25.22.61.33,1.09.33s.9-.1,1.26-.31.64-.49.81-.85c.13-.28.2-.69.2-1.23v-.45Z"/>
    <path class="cls-1" d="M156.96,99.91v-10.02h4.44c.89,0,1.57.09,2.04.27s.84.5,1.11.95.42.96.42,1.51c0,.71-.23,1.31-.69,1.8s-1.17.8-2.13.93c.35.17.62.33.8.5.39.36.75.8,1.1,1.33l1.74,2.73h-1.67l-1.33-2.08c-.39-.6-.71-1.06-.96-1.38s-.48-.54-.67-.67c-.2-.13-.4-.22-.61-.27-.15-.03-.4-.05-.74-.05h-1.54v4.45h-1.33ZM158.28,94.31h2.85c.61,0,1.08-.06,1.42-.19s.6-.33.78-.6.27-.58.27-.9c0-.47-.17-.86-.52-1.17-.34-.31-.89-.46-1.63-.46h-3.17v3.32Z"/>
    <path class="cls-1" d="M166.9,91.31v-1.42h1.23v1.42h-1.23ZM166.9,99.91v-7.26h1.23v7.26h-1.23Z"/>
    <path class="cls-1" d="M170,99.91v-7.26h1.1v1.02c.23-.36.53-.64.91-.86s.81-.32,1.29-.32c.54,0,.98.11,1.32.33.34.22.59.54.73.94.57-.85,1.32-1.27,2.24-1.27.72,0,1.27.2,1.66.6s.58,1.01.58,1.84v4.98h-1.22v-4.57c0-.49-.04-.85-.12-1.06-.08-.22-.22-.39-.43-.52s-.46-.2-.74-.2c-.51,0-.93.17-1.27.51s-.51.88-.51,1.63v4.22h-1.23v-4.72c0-.55-.1-.96-.3-1.23s-.53-.41-.98-.41c-.35,0-.67.09-.96.27-.29.18-.51.45-.64.8s-.2.86-.2,1.52v3.77h-1.23Z"/>
    <path class="cls-1" d="M182.8,99.91h-1.14v-10.02h1.23v3.58c.52-.65,1.18-.98,1.99-.98.45,0,.87.09,1.27.27.4.18.73.43.98.76.26.33.46.72.6,1.18s.22.95.22,1.48c0,1.24-.31,2.21-.92,2.88s-1.35,1.02-2.21,1.02-1.53-.36-2.02-1.07v.91ZM182.78,96.23c0,.87.12,1.5.36,1.89.39.63.91.95,1.57.95.54,0,1-.23,1.39-.7s.59-1.16.59-2.09-.19-1.65-.56-2.1c-.38-.45-.83-.68-1.36-.68s-1,.23-1.39.7-.59,1.14-.59,2.03Z"/>
    <path class="cls-1" d="M194.2,99.91v-1.07c-.57.82-1.33,1.23-2.3,1.23-.43,0-.83-.08-1.2-.25-.37-.16-.65-.37-.83-.62-.18-.25-.31-.55-.38-.91-.05-.24-.08-.62-.08-1.15v-4.5h1.23v4.03c0,.64.03,1.08.08,1.3.08.32.24.58.49.76s.56.28.93.28.72-.09,1.04-.28.55-.45.69-.77c.13-.33.2-.8.2-1.42v-3.89h1.23v7.26h-1.1Z"/>
    <path class="cls-1" d="M197.23,99.91v-7.26h1.11v1.03c.53-.8,1.3-1.2,2.31-1.2.44,0,.84.08,1.21.24.37.16.64.36.82.62s.31.56.38.91c.05.23.07.63.07,1.2v4.46h-1.23v-4.42c0-.5-.05-.88-.14-1.12s-.27-.45-.51-.59c-.24-.15-.53-.22-.86-.22-.52,0-.98.17-1.36.5-.38.33-.57.96-.57,1.89v3.96h-1.23Z"/>
    <path class="cls-1" d="M211.36,99.91v-8.84h-3.3v-1.18h7.94v1.18h-3.32v8.84h-1.33Z"/>
    <path class="cls-1" d="M221.45,99.91v-1.07c-.57.82-1.33,1.23-2.3,1.23-.43,0-.83-.08-1.2-.25-.37-.16-.65-.37-.83-.62-.18-.25-.31-.55-.38-.91-.05-.24-.08-.62-.08-1.15v-4.5h1.23v4.03c0,.64.03,1.08.08,1.3.08.32.24.58.49.76s.56.28.93.28.72-.09,1.04-.28.55-.45.69-.77c.13-.33.2-.8.2-1.42v-3.89h1.23v7.26h-1.1Z"/>
    <path class="cls-1" d="M224.45,99.91v-10.02h1.23v10.02h-1.23Z"/>
    <path class="cls-1" d="M232.32,99.02c-.46.39-.89.66-1.32.82-.42.16-.87.24-1.36.24-.8,0-1.41-.19-1.84-.58s-.64-.89-.64-1.49c0-.36.08-.68.24-.97.16-.29.37-.53.64-.71.26-.18.56-.31.88-.4.24-.06.61-.13,1.09-.18.99-.12,1.72-.26,2.19-.42,0-.17,0-.28,0-.32,0-.5-.12-.85-.35-1.06-.31-.28-.78-.42-1.4-.42-.58,0-1.01.1-1.28.3-.28.2-.48.56-.61,1.08l-1.2-.16c.11-.52.29-.93.54-1.25s.61-.56,1.09-.73,1.02-.26,1.65-.26,1.12.07,1.51.22.67.33.85.55.31.5.38.84c.04.21.06.59.06,1.13v1.64c0,1.14.03,1.87.08,2.17.05.3.16.59.31.87h-1.29c-.13-.26-.21-.55-.25-.9ZM232.22,96.27c-.45.18-1.12.34-2.01.46-.51.07-.86.15-1.07.25s-.37.22-.49.4-.17.37-.17.58c0,.33.12.6.37.82.25.22.61.33,1.09.33s.9-.1,1.26-.31.64-.49.81-.85c.13-.28.2-.69.2-1.23v-.45Z"/>
    <path class="cls-1" d="M235.37,99.91v-7.26h1.11v1.03c.53-.8,1.3-1.2,2.31-1.2.44,0,.84.08,1.21.24.37.16.64.36.82.62s.31.56.38.91c.05.23.07.63.07,1.2v4.46h-1.23v-4.42c0-.5-.05-.88-.14-1.12s-.27-.45-.51-.59c-.24-.15-.53-.22-.86-.22-.52,0-.98.17-1.36.5-.38.33-.57.96-.57,1.89v3.96h-1.23Z"/>
    <path class="cls-1" d="M242.93,100.51l1.2.18c.05.37.19.64.42.81.31.23.72.34,1.25.34.57,0,1.01-.11,1.32-.34s.52-.55.63-.96c.06-.25.09-.78.09-1.58-.54.63-1.21.95-2.01.95-1,0-1.77-.36-2.32-1.08s-.82-1.58-.82-2.59c0-.69.12-1.33.38-1.92s.61-1.04,1.09-1.36c.48-.32,1.04-.48,1.68-.48.86,0,1.56.35,2.12,1.04v-.88h1.13v6.28c0,1.13-.12,1.93-.35,2.4-.23.47-.59.84-1.09,1.12-.5.27-1.11.41-1.84.41-.87,0-1.57-.19-2.1-.58s-.79-.98-.77-1.76ZM243.95,96.15c0,.95.19,1.65.57,2.08s.85.66,1.42.66,1.04-.22,1.42-.65.57-1.12.57-2.05-.2-1.56-.59-2.01c-.39-.45-.87-.68-1.42-.68s-1.01.22-1.39.67-.57,1.1-.57,1.98Z"/>
    <path class="cls-1" d="M254.94,99.91v-10.02h1.33v4.97l4.98-4.97h1.8l-4.2,4.06,4.39,5.96h-1.75l-3.57-5.07-1.64,1.6v3.47h-1.33Z"/>
    <path class="cls-1" d="M269.14,97.57l1.27.16c-.2.74-.57,1.32-1.11,1.73s-1.24.62-2.08.62c-1.06,0-1.9-.33-2.53-.98-.62-.65-.93-1.57-.93-2.75s.31-2.17.94-2.84,1.44-1.01,2.45-1.01,1.76.33,2.38.99.92,1.59.92,2.79c0,.07,0,.18,0,.33h-5.41c.05.8.27,1.41.68,1.83s.91.64,1.52.64c.45,0,.84-.12,1.16-.36s.57-.62.76-1.13ZM265.1,95.59h4.05c-.05-.61-.21-1.07-.46-1.37-.39-.47-.9-.71-1.52-.71-.57,0-1.04.19-1.42.57-.39.38-.6.88-.64,1.52Z"/>
    <path class="cls-1" d="M276.69,97.25l1.21.16c-.13.83-.47,1.49-1.01,1.96-.54.47-1.21.71-2.01.71-.99,0-1.79-.32-2.4-.97-.6-.65-.91-1.58-.91-2.79,0-.78.13-1.47.39-2.06s.66-1.03,1.19-1.32c.53-.29,1.11-.44,1.73-.44.79,0,1.43.2,1.93.6s.82.96.96,1.7l-1.2.18c-.11-.49-.32-.85-.6-1.1-.29-.25-.64-.37-1.05-.37-.62,0-1.12.22-1.51.67s-.58,1.15-.58,2.11.19,1.68.56,2.13.86.66,1.46.66c.48,0,.89-.15,1.21-.44s.53-.75.62-1.37Z"/>
    <path class="cls-1" d="M279.31,99.91v-1.4h1.4v1.4h-1.4Z"/>
    <path class="cls-1" d="M286.84,99.91v-10.02h1.33v4.97l4.98-4.97h1.8l-4.2,4.06,4.39,5.96h-1.75l-3.57-5.07-1.64,1.6v3.47h-1.33Z"/>
    <path class="cls-1" d="M300.83,99.91v-1.07c-.57.82-1.33,1.23-2.3,1.23-.43,0-.83-.08-1.2-.25-.37-.16-.65-.37-.83-.62-.18-.25-.31-.55-.38-.91-.05-.24-.08-.62-.08-1.15v-4.5h1.23v4.03c0,.64.03,1.08.08,1.3.08.32.24.58.49.76s.56.28.93.28.72-.09,1.04-.28.55-.45.69-.77c.13-.33.2-.8.2-1.42v-3.89h1.23v7.26h-1.1Z"/>
    <path class="cls-1" d="M303.85,99.91v-7.26h1.11v1.1c.28-.52.54-.85.78-1.02.24-.16.5-.25.79-.25.42,0,.84.13,1.26.4l-.42,1.14c-.3-.18-.6-.27-.9-.27-.27,0-.51.08-.72.24s-.37.39-.46.67c-.14.44-.21.92-.21,1.44v3.8h-1.23Z"/>
    <path class="cls-1" d="M308.53,91.31v-1.42h1.23v1.42h-1.23ZM308.53,99.91v-7.26h1.23v7.26h-1.23Z"/>
    <path class="cls-1" d="M311.63,102.69v-10.04h1.12v.94c.26-.37.56-.65.9-.83s.74-.28,1.21-.28c.62,0,1.17.16,1.64.48s.83.77,1.07,1.35.36,1.22.36,1.91c0,.74-.13,1.41-.4,2.01-.27.59-.65,1.05-1.16,1.37-.51.32-1.04.48-1.6.48-.41,0-.78-.09-1.1-.26-.33-.17-.59-.39-.8-.66v3.53h-1.23ZM312.75,96.32c0,.93.19,1.62.57,2.07s.84.67,1.37.67,1.02-.23,1.4-.69c.39-.46.58-1.18.58-2.15s-.19-1.62-.57-2.08c-.38-.46-.83-.69-1.36-.69s-.99.25-1.39.73c-.4.49-.61,1.2-.61,2.14Z"/>
    <path class="cls-1" d="M324.16,99.02c-.46.39-.89.66-1.32.82-.42.16-.87.24-1.36.24-.8,0-1.41-.19-1.84-.58s-.64-.89-.64-1.49c0-.36.08-.68.24-.97.16-.29.37-.53.64-.71.26-.18.56-.31.88-.4.24-.06.61-.13,1.09-.18.99-.12,1.72-.26,2.19-.42,0-.17,0-.28,0-.32,0-.5-.12-.85-.35-1.06-.31-.28-.78-.42-1.4-.42-.58,0-1.01.1-1.28.3-.28.2-.48.56-.61,1.08l-1.2-.16c.11-.52.29-.93.54-1.25s.61-.56,1.09-.73,1.02-.26,1.65-.26,1.12.07,1.51.22.67.33.85.55.31.5.38.84c.04.21.06.59.06,1.13v1.64c0,1.14.03,1.87.08,2.17.05.3.16.59.31.87h-1.29c-.13-.26-.21-.55-.25-.9ZM324.05,96.27c-.45.18-1.12.34-2.01.46-.51.07-.86.15-1.07.25s-.37.22-.49.4-.17.37-.17.58c0,.33.12.6.37.82.25.22.61.33,1.09.33s.9-.1,1.26-.31.64-.49.81-.85c.13-.28.2-.69.2-1.23v-.45Z"/>
    <path class="cls-1" d="M327.2,99.91v-7.26h1.11v1.03c.53-.8,1.3-1.2,2.31-1.2.44,0,.84.08,1.21.24.37.16.64.36.82.62s.31.56.38.91c.05.23.07.63.07,1.2v4.46h-1.23v-4.42c0-.5-.05-.88-.14-1.12s-.27-.45-.51-.59c-.24-.15-.53-.22-.86-.22-.52,0-.98.17-1.36.5-.38.33-.57.96-.57,1.89v3.96h-1.23Z"/>
    <path class="cls-1" d="M335.31,99.91v-1.4h1.4v1.4c0,.52-.09.93-.27,1.25s-.47.56-.87.73l-.34-.53c.26-.11.45-.28.57-.5s.19-.54.21-.95h-.7Z"/>
    <path class="cls-1" d="M342.87,99.91v-10.02h1.33v4.97l4.98-4.97h1.8l-4.2,4.06,4.39,5.96h-1.75l-3.57-5.07-1.64,1.6v3.47h-1.33Z"/>
    <path class="cls-1" d="M356.85,99.02c-.46.39-.89.66-1.32.82-.42.16-.87.24-1.36.24-.8,0-1.41-.19-1.84-.58s-.64-.89-.64-1.49c0-.36.08-.68.24-.97.16-.29.37-.53.64-.71.26-.18.56-.31.88-.4.24-.06.61-.13,1.09-.18.99-.12,1.72-.26,2.19-.42,0-.17,0-.28,0-.32,0-.5-.12-.85-.35-1.06-.31-.28-.78-.42-1.4-.42-.58,0-1.01.1-1.28.3-.28.2-.48.56-.61,1.08l-1.2-.16c.11-.52.29-.93.54-1.25s.61-.56,1.09-.73,1.02-.26,1.65-.26,1.12.07,1.51.22.67.33.85.55.31.5.38.84c.04.21.06.59.06,1.13v1.64c0,1.14.03,1.87.08,2.17.05.3.16.59.31.87h-1.29c-.13-.26-.21-.55-.25-.9ZM356.74,96.27c-.45.18-1.12.34-2.01.46-.51.07-.86.15-1.07.25s-.37.22-.49.4-.17.37-.17.58c0,.33.12.6.37.82.25.22.61.33,1.09.33s.9-.1,1.26-.31.64-.49.81-.85c.13-.28.2-.69.2-1.23v-.45Z"/>
    <path class="cls-1" d="M361.03,99.91h-1.14v-10.02h1.23v3.58c.52-.65,1.18-.98,1.99-.98.45,0,.87.09,1.27.27.4.18.73.43.98.76.26.33.46.72.6,1.18s.22.95.22,1.48c0,1.24-.31,2.21-.92,2.88s-1.35,1.02-2.21,1.02-1.53-.36-2.02-1.07v.91ZM361.02,96.23c0,.87.12,1.5.36,1.89.39.63.91.95,1.57.95.54,0,1-.23,1.39-.7s.59-1.16.59-2.09-.19-1.65-.56-2.1c-.38-.45-.83-.68-1.36-.68s-1,.23-1.39.7-.59,1.14-.59,2.03Z"/>
    <path class="cls-1" d="M372.44,99.91v-1.07c-.57.82-1.33,1.23-2.3,1.23-.43,0-.83-.08-1.2-.25-.37-.16-.65-.37-.83-.62-.18-.25-.31-.55-.38-.91-.05-.24-.08-.62-.08-1.15v-4.5h1.23v4.03c0,.64.03,1.08.08,1.3.08.32.24.58.49.76s.56.28.93.28.72-.09,1.04-.28.55-.45.69-.77c.13-.33.2-.8.2-1.42v-3.89h1.23v7.26h-1.1Z"/>
    <path class="cls-1" d="M375.47,102.69v-10.04h1.12v.94c.26-.37.56-.65.9-.83s.74-.28,1.21-.28c.62,0,1.17.16,1.64.48s.83.77,1.07,1.35.36,1.22.36,1.91c0,.74-.13,1.41-.4,2.01-.27.59-.65,1.05-1.16,1.37-.51.32-1.04.48-1.6.48-.41,0-.78-.09-1.1-.26-.33-.17-.59-.39-.8-.66v3.53h-1.23ZM376.58,96.32c0,.93.19,1.62.57,2.07s.84.67,1.37.67,1.02-.23,1.4-.69c.39-.46.58-1.18.58-2.15s-.19-1.62-.57-2.08c-.38-.46-.83-.69-1.36-.69s-.99.25-1.39.73c-.4.49-.61,1.2-.61,2.14Z"/>
    <path class="cls-1" d="M387.99,99.02c-.46.39-.89.66-1.32.82-.42.16-.87.24-1.36.24-.8,0-1.41-.19-1.84-.58s-.64-.89-.64-1.49c0-.36.08-.68.24-.97.16-.29.37-.53.64-.71.26-.18.56-.31.88-.4.24-.06.61-.13,1.09-.18.99-.12,1.72-.26,2.19-.42,0-.17,0-.28,0-.32,0-.5-.12-.85-.35-1.06-.31-.28-.78-.42-1.4-.42-.58,0-1.01.1-1.28.3-.28.2-.48.56-.61,1.08l-1.2-.16c.11-.52.29-.93.54-1.25s.61-.56,1.09-.73,1.02-.26,1.65-.26,1.12.07,1.51.22.67.33.85.55.31.5.38.84c.04.21.06.59.06,1.13v1.64c0,1.14.03,1.87.08,2.17.05.3.16.59.31.87h-1.29c-.13-.26-.21-.55-.25-.9ZM387.89,96.27c-.45.18-1.12.34-2.01.46-.51.07-.86.15-1.07.25s-.37.22-.49.4-.17.37-.17.58c0,.33.12.6.37.82.25.22.61.33,1.09.33s.9-.1,1.26-.31.64-.49.81-.85c.13-.28.2-.69.2-1.23v-.45Z"/>
    <path class="cls-1" d="M393.73,98.81l.18,1.09c-.35.07-.66.11-.93.11-.45,0-.79-.07-1.04-.21s-.42-.33-.52-.56-.15-.71-.15-1.45v-4.18h-.9v-.96h.9v-1.8l1.22-.74v2.54h1.24v.96h-1.24v4.25c0,.35.02.58.07.68.04.1.11.18.21.24.1.06.24.09.42.09.14,0,.32-.02.54-.05Z"/>
    <path class="cls-1" d="M399.9,97.57l1.27.16c-.2.74-.57,1.32-1.11,1.73s-1.24.62-2.08.62c-1.06,0-1.9-.33-2.53-.98-.62-.65-.93-1.57-.93-2.75s.31-2.17.94-2.84,1.44-1.01,2.45-1.01,1.76.33,2.38.99.92,1.59.92,2.79c0,.07,0,.18,0,.33h-5.41c.05.8.27,1.41.68,1.83s.91.64,1.52.64c.45,0,.84-.12,1.16-.36s.57-.62.76-1.13ZM395.86,95.59h4.05c-.05-.61-.21-1.07-.46-1.37-.39-.47-.9-.71-1.52-.71-.57,0-1.04.19-1.42.57-.39.38-.6.88-.64,1.52Z"/>
    <path class="cls-1" d="M402.71,99.91v-7.26h1.11v1.03c.53-.8,1.3-1.2,2.31-1.2.44,0,.84.08,1.21.24.37.16.64.36.82.62s.31.56.38.91c.05.23.07.63.07,1.2v4.46h-1.23v-4.42c0-.5-.05-.88-.14-1.12s-.27-.45-.51-.59c-.24-.15-.53-.22-.86-.22-.52,0-.98.17-1.36.5-.38.33-.57.96-.57,1.89v3.96h-1.23Z"/>
    <path class="cls-1" d="M414.49,99.91v-10.02h3.76c.77,0,1.38.1,1.84.3.46.2.83.52,1.09.94.26.42.39.86.39,1.32,0,.43-.12.83-.35,1.21s-.58.68-1.05.92c.61.18,1.07.48,1.4.91.33.43.49.93.49,1.52,0,.47-.1.91-.3,1.31-.2.4-.44.71-.73.93s-.66.38-1.1.5c-.44.11-.98.17-1.62.17h-3.82ZM415.82,94.1h2.17c.59,0,1.01-.04,1.26-.12.34-.1.59-.27.76-.5.17-.23.26-.52.26-.88,0-.33-.08-.63-.24-.88s-.39-.43-.68-.52-.8-.14-1.52-.14h-2v3.03ZM415.82,98.73h2.5c.43,0,.73-.02.9-.05.31-.05.56-.15.77-.27s.37-.31.51-.56.2-.53.2-.84c0-.37-.1-.7-.29-.97s-.46-.47-.8-.58c-.34-.11-.83-.17-1.47-.17h-2.32v3.45Z"/>
    <path class="cls-1" d="M428.47,99.02c-.46.39-.89.66-1.32.82-.42.16-.87.24-1.36.24-.8,0-1.41-.19-1.84-.58s-.64-.89-.64-1.49c0-.36.08-.68.24-.97.16-.29.37-.53.64-.71.26-.18.56-.31.88-.4.24-.06.61-.13,1.09-.18.99-.12,1.72-.26,2.19-.42,0-.17,0-.28,0-.32,0-.5-.12-.85-.35-1.06-.31-.28-.78-.42-1.4-.42-.58,0-1.01.1-1.28.3-.28.2-.48.56-.61,1.08l-1.2-.16c.11-.52.29-.93.54-1.25s.61-.56,1.09-.73,1.02-.26,1.65-.26,1.12.07,1.51.22.67.33.85.55.31.5.38.84c.04.21.06.59.06,1.13v1.64c0,1.14.03,1.87.08,2.17.05.3.16.59.31.87h-1.29c-.13-.26-.21-.55-.25-.9ZM428.36,96.27c-.45.18-1.12.34-2.01.46-.51.07-.86.15-1.07.25s-.37.22-.49.4-.17.37-.17.58c0,.33.12.6.37.82.25.22.61.33,1.09.33s.9-.1,1.26-.31.64-.49.81-.85c.13-.28.2-.69.2-1.23v-.45Z"/>
    <path class="cls-1" d="M431.5,99.91v-7.26h1.11v1.1c.28-.52.54-.85.78-1.02.24-.16.5-.25.79-.25.42,0,.84.13,1.26.4l-.42,1.14c-.3-.18-.6-.27-.9-.27-.27,0-.51.08-.72.24s-.37.39-.46.67c-.14.44-.21.92-.21,1.44v3.8h-1.23Z"/>
    <path class="cls-1" d="M436.18,91.31v-1.42h1.23v1.42h-1.23ZM436.18,99.91v-7.26h1.23v7.26h-1.23Z"/>
    <path class="cls-1" d="M441.97,98.81l.18,1.09c-.35.07-.66.11-.93.11-.45,0-.79-.07-1.04-.21s-.42-.33-.52-.56-.15-.71-.15-1.45v-4.18h-.9v-.96h.9v-1.8l1.22-.74v2.54h1.24v.96h-1.24v4.25c0,.35.02.58.07.68.04.1.11.18.21.24.1.06.24.09.42.09.14,0,.32-.02.54-.05Z"/>
    <path class="cls-1" d="M442.72,96.28c0-1.34.37-2.34,1.12-2.99.62-.54,1.39-.81,2.28-.81,1,0,1.81.33,2.45.98s.95,1.56.95,2.71c0,.93-.14,1.67-.42,2.2-.28.54-.69.95-1.22,1.25-.54.3-1.12.44-1.75.44-1.02,0-1.84-.33-2.46-.98-.63-.65-.94-1.59-.94-2.82ZM443.98,96.28c0,.93.2,1.63.61,2.09s.92.69,1.53.69,1.12-.23,1.52-.7.61-1.17.61-2.13c0-.9-.2-1.58-.61-2.04-.41-.46-.92-.69-1.52-.69s-1.13.23-1.53.69-.61,1.16-.61,2.08Z"/>
    <path class="cls-1" d="M454.95,99.91v-10.02h1.33v4.97l4.98-4.97h1.8l-4.2,4.06,4.39,5.96h-1.75l-3.57-5.07-1.64,1.6v3.47h-1.33Z"/>
    <path class="cls-1" d="M468.95,99.91v-1.07c-.57.82-1.33,1.23-2.3,1.23-.43,0-.83-.08-1.2-.25-.37-.16-.65-.37-.83-.62-.18-.25-.31-.55-.38-.91-.05-.24-.08-.62-.08-1.15v-4.5h1.23v4.03c0,.64.03,1.08.08,1.3.08.32.24.58.49.76s.56.28.93.28.72-.09,1.04-.28.55-.45.69-.77c.13-.33.2-.8.2-1.42v-3.89h1.23v7.26h-1.1Z"/>
    <path class="cls-1" d="M476.71,99.02c-.46.39-.89.66-1.32.82-.42.16-.87.24-1.36.24-.8,0-1.41-.19-1.84-.58s-.64-.89-.64-1.49c0-.36.08-.68.24-.97.16-.29.37-.53.64-.71.26-.18.56-.31.88-.4.24-.06.61-.13,1.09-.18.99-.12,1.72-.26,2.19-.42,0-.17,0-.28,0-.32,0-.5-.12-.85-.35-1.06-.31-.28-.78-.42-1.4-.42-.58,0-1.01.1-1.28.3-.28.2-.48.56-.61,1.08l-1.2-.16c.11-.52.29-.93.54-1.25s.61-.56,1.09-.73,1.02-.26,1.65-.26,1.12.07,1.51.22.67.33.85.55.31.5.38.84c.04.21.06.59.06,1.13v1.64c0,1.14.03,1.87.08,2.17.05.3.16.59.31.87h-1.29c-.13-.26-.21-.55-.25-.9ZM476.61,96.27c-.45.18-1.12.34-2.01.46-.51.07-.86.15-1.07.25s-.37.22-.49.4-.17.37-.17.58c0,.33.12.6.37.82.25.22.61.33,1.09.33s.9-.1,1.26-.31.64-.49.81-.85c.13-.28.2-.69.2-1.23v-.45Z"/>
    <path class="cls-1" d="M479.74,99.91v-10.02h1.23v10.02h-1.23Z"/>
    <path class="cls-1" d="M487.61,99.02c-.46.39-.89.66-1.32.82-.42.16-.87.24-1.36.24-.8,0-1.41-.19-1.84-.58s-.64-.89-.64-1.49c0-.36.08-.68.24-.97.16-.29.37-.53.64-.71.26-.18.56-.31.88-.4.24-.06.61-.13,1.09-.18.99-.12,1.72-.26,2.19-.42,0-.17,0-.28,0-.32,0-.5-.12-.85-.35-1.06-.31-.28-.78-.42-1.4-.42-.58,0-1.01.1-1.28.3-.28.2-.48.56-.61,1.08l-1.2-.16c.11-.52.29-.93.54-1.25s.61-.56,1.09-.73,1.02-.26,1.65-.26,1.12.07,1.51.22.67.33.85.55.31.5.38.84c.04.21.06.59.06,1.13v1.64c0,1.14.03,1.87.08,2.17.05.3.16.59.31.87h-1.29c-.13-.26-.21-.55-.25-.9ZM487.51,96.27c-.45.18-1.12.34-2.01.46-.51.07-.86.15-1.07.25s-.37.22-.49.4-.17.37-.17.58c0,.33.12.6.37.82.25.22.61.33,1.09.33s.9-.1,1.26-.31.64-.49.81-.85c.13-.28.2-.69.2-1.23v-.45Z"/>
    <path class="cls-1" d="M214.47,116.71v-10.02h1.33v4.97l4.98-4.97h1.8l-4.2,4.06,4.39,5.96h-1.75l-3.57-5.07-1.64,1.6v3.47h-1.33Z"/>
    <path class="cls-1" d="M228.45,115.82c-.46.39-.89.66-1.32.82-.42.16-.87.24-1.36.24-.8,0-1.41-.19-1.84-.58s-.64-.89-.64-1.49c0-.36.08-.68.24-.97.16-.29.37-.53.64-.71.26-.18.56-.31.88-.4.24-.06.61-.13,1.09-.18.99-.12,1.72-.26,2.19-.42,0-.17,0-.28,0-.32,0-.5-.12-.85-.35-1.06-.31-.28-.78-.42-1.4-.42-.58,0-1.01.1-1.28.3-.28.2-.48.56-.61,1.08l-1.2-.16c.11-.52.29-.93.54-1.25s.61-.56,1.09-.73,1.02-.26,1.65-.26,1.12.07,1.51.22.67.33.85.55.31.5.38.84c.04.21.06.59.06,1.13v1.64c0,1.14.03,1.87.08,2.17.05.3.16.59.31.87h-1.29c-.13-.26-.21-.55-.25-.9ZM228.34,113.07c-.45.18-1.12.34-2.01.46-.51.07-.86.15-1.07.25s-.37.22-.49.4-.17.37-.17.58c0,.33.12.6.37.82.25.22.61.33,1.09.33s.9-.1,1.26-.31.64-.49.81-.85c.13-.28.2-.69.2-1.23v-.45Z"/>
    <path class="cls-1" d="M231.47,116.71v-10.02h1.23v10.02h-1.23Z"/>
    <path class="cls-1" d="M234.61,108.11v-1.42h1.23v1.42h-1.23ZM234.61,116.71v-7.26h1.23v7.26h-1.23Z"/>
    <path class="cls-1" d="M237.72,116.71v-7.26h1.1v1.02c.23-.36.53-.64.91-.86s.81-.32,1.29-.32c.54,0,.98.11,1.32.33.34.22.59.54.73.94.57-.85,1.32-1.27,2.24-1.27.72,0,1.27.2,1.66.6s.58,1.01.58,1.84v4.98h-1.22v-4.57c0-.49-.04-.85-.12-1.06-.08-.22-.22-.39-.43-.52s-.46-.2-.74-.2c-.51,0-.93.17-1.27.51s-.51.88-.51,1.63v4.22h-1.23v-4.72c0-.55-.1-.96-.3-1.23s-.53-.41-.98-.41c-.35,0-.67.09-.96.27-.29.18-.51.45-.64.8s-.2.86-.2,1.52v3.77h-1.23Z"/>
    <path class="cls-1" d="M254.12,115.82c-.46.39-.89.66-1.32.82-.42.16-.87.24-1.36.24-.8,0-1.41-.19-1.84-.58s-.64-.89-.64-1.49c0-.36.08-.68.24-.97.16-.29.37-.53.64-.71.26-.18.56-.31.88-.4.24-.06.61-.13,1.09-.18.99-.12,1.72-.26,2.19-.42,0-.17,0-.28,0-.32,0-.5-.12-.85-.35-1.06-.31-.28-.78-.42-1.4-.42-.58,0-1.01.1-1.28.3-.28.2-.48.56-.61,1.08l-1.2-.16c.11-.52.29-.93.54-1.25s.61-.56,1.09-.73,1.02-.26,1.65-.26,1.12.07,1.51.22.67.33.85.55.31.5.38.84c.04.21.06.59.06,1.13v1.64c0,1.14.03,1.87.08,2.17.05.3.16.59.31.87h-1.29c-.13-.26-.21-.55-.25-.9ZM254.01,113.07c-.45.18-1.12.34-2.01.46-.51.07-.86.15-1.07.25s-.37.22-.49.4-.17.37-.17.58c0,.33.12.6.37.82.25.22.61.33,1.09.33s.9-.1,1.26-.31.64-.49.81-.85c.13-.28.2-.69.2-1.23v-.45Z"/>
    <path class="cls-1" d="M257.16,116.71v-7.26h1.11v1.03c.53-.8,1.3-1.2,2.31-1.2.44,0,.84.08,1.21.24.37.16.64.36.82.62s.31.56.38.91c.05.23.07.63.07,1.2v4.46h-1.23v-4.42c0-.5-.05-.88-.14-1.12s-.27-.45-.51-.59c-.24-.15-.53-.22-.86-.22-.52,0-.98.17-1.36.5-.38.33-.57.96-.57,1.89v3.96h-1.23Z"/>
    <path class="cls-1" d="M267.64,115.61l.18,1.09c-.35.07-.66.11-.93.11-.45,0-.79-.07-1.04-.21s-.42-.33-.52-.56-.15-.71-.15-1.45v-4.18h-.9v-.96h.9v-1.8l1.22-.74v2.54h1.24v.96h-1.24v4.25c0,.35.02.58.07.68.04.1.11.18.21.24.1.06.24.09.42.09.14,0,.32-.02.54-.05Z"/>
    <path class="cls-1" d="M273.58,115.82c-.46.39-.89.66-1.32.82-.42.16-.87.24-1.36.24-.8,0-1.41-.19-1.84-.58s-.64-.89-.64-1.49c0-.36.08-.68.24-.97.16-.29.37-.53.64-.71.26-.18.56-.31.88-.4.24-.06.61-.13,1.09-.18.99-.12,1.72-.26,2.19-.42,0-.17,0-.28,0-.32,0-.5-.12-.85-.35-1.06-.31-.28-.78-.42-1.4-.42-.58,0-1.01.1-1.28.3-.28.2-.48.56-.61,1.08l-1.2-.16c.11-.52.29-.93.54-1.25s.61-.56,1.09-.73,1.02-.26,1.65-.26,1.12.07,1.51.22.67.33.85.55.31.5.38.84c.04.21.06.59.06,1.13v1.64c0,1.14.03,1.87.08,2.17.05.3.16.59.31.87h-1.29c-.13-.26-.21-.55-.25-.9ZM273.47,113.07c-.45.18-1.12.34-2.01.46-.51.07-.86.15-1.07.25s-.37.22-.49.4-.17.37-.17.58c0,.33.12.6.37.82.25.22.61.33,1.09.33s.9-.1,1.26-.31.64-.49.81-.85c.13-.28.2-.69.2-1.23v-.45Z"/>
    <path class="cls-1" d="M276.63,116.71v-7.26h1.11v1.03c.53-.8,1.3-1.2,2.31-1.2.44,0,.84.08,1.21.24.37.16.64.36.82.62s.31.56.38.91c.05.23.07.63.07,1.2v4.46h-1.23v-4.42c0-.5-.05-.88-.14-1.12s-.27-.45-.51-.59c-.24-.15-.53-.22-.86-.22-.52,0-.98.17-1.36.5-.38.33-.57.96-.57,1.89v3.96h-1.23Z"/>
    <path class="cls-1" d="M288.01,113.49l1.25-.11c.06.5.2.91.41,1.23.22.32.55.58,1.01.78s.97.3,1.54.3c.51,0,.95-.08,1.34-.23s.68-.36.87-.62c.19-.26.28-.55.28-.86s-.09-.59-.27-.82-.48-.43-.9-.59c-.27-.1-.86-.27-1.78-.49s-1.57-.43-1.93-.63c-.48-.25-.83-.56-1.07-.93-.23-.37-.35-.79-.35-1.25,0-.51.14-.98.43-1.42s.71-.77,1.26-1,1.16-.34,1.84-.34c.74,0,1.4.12,1.96.36.57.24,1,.59,1.31,1.06s.47.99.49,1.58l-1.27.1c-.07-.63-.3-1.11-.69-1.44-.39-.32-.98-.49-1.75-.49s-1.39.15-1.75.44c-.37.29-.55.65-.55,1.06,0,.36.13.66.39.89.25.23.92.47,2,.71,1.08.24,1.82.46,2.22.64.58.27,1.01.61,1.29,1.02s.42.89.42,1.43-.15,1.04-.46,1.51-.74.84-1.32,1.1c-.57.26-1.21.39-1.93.39-.91,0-1.67-.13-2.28-.4-.61-.26-1.09-.66-1.44-1.19-.35-.53-.53-1.13-.55-1.8Z"/>
    <path class="cls-1" d="M302.61,114.37l1.27.16c-.2.74-.57,1.32-1.11,1.73s-1.24.62-2.08.62c-1.06,0-1.9-.33-2.53-.98-.62-.65-.93-1.57-.93-2.75s.31-2.17.94-2.84,1.44-1.01,2.45-1.01,1.76.33,2.38.99.92,1.59.92,2.79c0,.07,0,.18,0,.33h-5.41c.05.8.27,1.41.68,1.83s.91.64,1.52.64c.45,0,.84-.12,1.16-.36s.57-.62.76-1.13ZM298.57,112.39h4.05c-.05-.61-.21-1.07-.46-1.37-.39-.47-.9-.71-1.52-.71-.57,0-1.04.19-1.42.57-.39.38-.6.88-.64,1.52Z"/>
    <path class="cls-1" d="M305.4,116.71v-10.02h1.23v10.02h-1.23Z"/>
    <path class="cls-1" d="M313.27,115.82c-.46.39-.89.66-1.32.82-.42.16-.87.24-1.36.24-.8,0-1.41-.19-1.84-.58s-.64-.89-.64-1.49c0-.36.08-.68.24-.97.16-.29.37-.53.64-.71.26-.18.56-.31.88-.4.24-.06.61-.13,1.09-.18.99-.12,1.72-.26,2.19-.42,0-.17,0-.28,0-.32,0-.5-.12-.85-.35-1.06-.31-.28-.78-.42-1.4-.42-.58,0-1.01.1-1.28.3-.28.2-.48.56-.61,1.08l-1.2-.16c.11-.52.29-.93.54-1.25s.61-.56,1.09-.73,1.02-.26,1.65-.26,1.12.07,1.51.22.67.33.85.55.31.5.38.84c.04.21.06.59.06,1.13v1.64c0,1.14.03,1.87.08,2.17.05.3.16.59.31.87h-1.29c-.13-.26-.21-.55-.25-.9ZM313.17,113.07c-.45.18-1.12.34-2.01.46-.51.07-.86.15-1.07.25s-.37.22-.49.4-.17.37-.17.58c0,.33.12.6.37.82.25.22.61.33,1.09.33s.9-.1,1.26-.31.64-.49.81-.85c.13-.28.2-.69.2-1.23v-.45Z"/>
    <path class="cls-1" d="M319.01,115.61l.18,1.09c-.35.07-.66.11-.93.11-.45,0-.79-.07-1.04-.21s-.42-.33-.52-.56-.15-.71-.15-1.45v-4.18h-.9v-.96h.9v-1.8l1.22-.74v2.54h1.24v.96h-1.24v4.25c0,.35.02.58.07.68.04.1.11.18.21.24.1.06.24.09.42.09.14,0,.32-.02.54-.05Z"/>
    <path class="cls-1" d="M324.95,115.82c-.46.39-.89.66-1.32.82-.42.16-.87.24-1.36.24-.8,0-1.41-.19-1.84-.58s-.64-.89-.64-1.49c0-.36.08-.68.24-.97.16-.29.37-.53.64-.71.26-.18.56-.31.88-.4.24-.06.61-.13,1.09-.18.99-.12,1.72-.26,2.19-.42,0-.17,0-.28,0-.32,0-.5-.12-.85-.35-1.06-.31-.28-.78-.42-1.4-.42-.58,0-1.01.1-1.28.3-.28.2-.48.56-.61,1.08l-1.2-.16c.11-.52.29-.93.54-1.25s.61-.56,1.09-.73,1.02-.26,1.65-.26,1.12.07,1.51.22.67.33.85.55.31.5.38.84c.04.21.06.59.06,1.13v1.64c0,1.14.03,1.87.08,2.17.05.3.16.59.31.87h-1.29c-.13-.26-.21-.55-.25-.9ZM324.85,113.07c-.45.18-1.12.34-2.01.46-.51.07-.86.15-1.07.25s-.37.22-.49.4-.17.37-.17.58c0,.33.12.6.37.82.25.22.61.33,1.09.33s.9-.1,1.26-.31.64-.49.81-.85c.13-.28.2-.69.2-1.23v-.45Z"/>
    <path class="cls-1" d="M328,116.71v-7.26h1.11v1.03c.53-.8,1.3-1.2,2.31-1.2.44,0,.84.08,1.21.24.37.16.64.36.82.62s.31.56.38.91c.05.23.07.63.07,1.2v4.46h-1.23v-4.42c0-.5-.05-.88-.14-1.12s-.27-.45-.51-.59c-.24-.15-.53-.22-.86-.22-.52,0-.98.17-1.36.5-.38.33-.57.96-.57,1.89v3.96h-1.23Z"/>
    <path class="cls-1" d="M339.41,108v-1.18h6.49v.96c-.64.68-1.27,1.58-1.9,2.71-.63,1.13-1.11,2.28-1.45,3.47-.25.84-.4,1.76-.47,2.75h-1.26c.01-.79.17-1.74.46-2.86s.72-2.19,1.28-3.23c.55-1.04,1.14-1.91,1.77-2.62h-4.91Z"/>
    <path class="cls-1" d="M347.12,111.77c0-1.19.12-2.14.37-2.86.24-.72.61-1.28,1.09-1.67.48-.39,1.09-.59,1.82-.59.54,0,1.01.11,1.42.32s.74.53,1,.94.47.9.62,1.49.23,1.38.23,2.37c0,1.18-.12,2.12-.36,2.85s-.6,1.28-1.08,1.67c-.48.39-1.09.59-1.82.59-.97,0-1.72-.35-2.28-1.04-.66-.83-.99-2.19-.99-4.07ZM348.38,111.77c0,1.65.19,2.74.58,3.28.38.54.86.82,1.42.82s1.04-.27,1.42-.82c.39-.55.58-1.64.58-3.28s-.19-2.75-.58-3.29c-.38-.54-.86-.81-1.44-.81s-1.02.24-1.35.72c-.42.61-.64,1.74-.64,3.38Z"/>
    <path class="cls-1" d="M354.9,114.09l1.29-.11c.1.63.32,1.1.67,1.42.35.32.77.48,1.26.48.59,0,1.09-.22,1.5-.67s.62-1.04.62-1.78-.2-1.26-.59-1.66c-.39-.41-.91-.61-1.55-.61-.4,0-.75.09-1.07.27s-.57.41-.75.7l-1.16-.15.97-5.15h4.98v1.18h-4l-.54,2.69c.6-.42,1.23-.63,1.89-.63.88,0,1.61.3,2.21.91s.9,1.39.9,2.34-.26,1.69-.79,2.35c-.64.81-1.52,1.22-2.63,1.22-.91,0-1.66-.26-2.23-.77-.58-.51-.91-1.19-.99-2.03Z"/>
    <path class="cls-1" d="M362.69,114.09l1.29-.11c.1.63.32,1.1.67,1.42.35.32.77.48,1.26.48.59,0,1.09-.22,1.5-.67s.62-1.04.62-1.78-.2-1.26-.59-1.66c-.39-.41-.91-.61-1.55-.61-.4,0-.75.09-1.07.27s-.57.41-.75.7l-1.16-.15.97-5.15h4.98v1.18h-4l-.54,2.69c.6-.42,1.23-.63,1.89-.63.88,0,1.61.3,2.21.91s.9,1.39.9,2.34-.26,1.69-.79,2.35c-.64.81-1.52,1.22-2.63,1.22-.91,0-1.66-.26-2.23-.77-.58-.51-.91-1.19-.99-2.03Z"/>
    <path class="cls-1" d="M376.94,115.53v1.18h-6.62c0-.3.04-.58.14-.85.17-.45.44-.9.81-1.33.37-.44.91-.94,1.61-1.52,1.09-.89,1.83-1.6,2.21-2.12s.57-1.02.57-1.48c0-.49-.17-.9-.52-1.23-.35-.33-.8-.5-1.36-.5-.59,0-1.07.18-1.42.53s-.54.85-.54,1.48l-1.26-.13c.09-.94.41-1.66.98-2.16s1.32-.74,2.28-.74,1.72.27,2.28.8.84,1.19.84,1.98c0,.4-.08.8-.25,1.18s-.44.8-.82,1.22c-.38.43-1.01,1.02-1.9,1.76-.74.62-1.21,1.04-1.42,1.26s-.38.44-.52.67h4.92Z"/>
  </g>
</svg>