<?xml version="1.0" encoding="UTF-8"?>
<svg id="Layer_1" data-name="Layer 1" xmlns="http://www.w3.org/2000/svg" viewBox="0 0 523.9 115.03">
  <defs>
    <style>
      .cls-1 {
        fill: #231f20;
      }
    </style>
  </defs>
  <path class="cls-1" d="M19.46,26.21V.44h8.35c3.16,0,5.23.13,6.19.39,1.48.39,2.71,1.23,3.71,2.52s1.49,2.97,1.49,5.02c0,1.58-.29,2.91-.86,3.99s-1.3,1.92-2.19,2.54-1.78,1.02-2.7,1.22c-1.24.25-3.04.37-5.4.37h-3.39v9.72h-5.2ZM24.67,4.8v7.31h2.85c2.05,0,3.42-.13,4.11-.4s1.23-.69,1.63-1.27.59-1.24.59-2c0-.94-.28-1.71-.83-2.32s-1.25-.99-2.09-1.14c-.62-.12-1.87-.18-3.74-.18h-2.51Z"/>
  <path class="cls-1" d="M49.28,26.21V4.8h-7.65V.44h20.48v4.36h-7.63v21.41h-5.2Z"/>
  <path class="cls-1" d="M81.27,26.21V4.8h-7.65V.44h20.48v4.36h-7.63v21.41h-5.2Z"/>
  <path class="cls-1" d="M118.02,26.21h-5.66l-2.25-5.85h-10.3l-2.13,5.85h-5.52L102.2.44h5.5l10.32,25.77ZM108.44,16.01l-3.55-9.56-3.48,9.56h7.03Z"/>
  <path class="cls-1" d="M119.47,17.82l5.06-.49c.3,1.7.92,2.95,1.85,3.74s2.19,1.2,3.77,1.2c1.68,0,2.94-.35,3.79-1.06s1.27-1.54,1.27-2.49c0-.61-.18-1.13-.54-1.56s-.98-.8-1.87-1.12c-.61-.21-2-.59-4.17-1.12-2.79-.69-4.75-1.54-5.87-2.55-1.58-1.42-2.37-3.15-2.37-5.19,0-1.31.37-2.54,1.12-3.68s1.82-2.01,3.22-2.61,3.09-.9,5.07-.9c3.23,0,5.67.71,7.3,2.13s2.49,3.31,2.58,5.68l-5.2.23c-.22-1.32-.7-2.28-1.43-2.86s-1.83-.87-3.3-.87-2.7.31-3.55.93c-.55.4-.83.93-.83,1.6,0,.61.26,1.13.77,1.56.66.55,2.25,1.12,4.78,1.72s4.4,1.22,5.62,1.85,2.16,1.51,2.85,2.62,1.03,2.48,1.03,4.1c0,1.48-.41,2.86-1.23,4.15s-1.98,2.25-3.48,2.87-3.37.94-5.61.94c-3.26,0-5.76-.75-7.51-2.26s-2.79-3.7-3.13-6.58Z"/>
  <path class="cls-1" d="M144.85,26.21V.44h5.06l10.55,17.21V.44h4.83v25.77h-5.22l-10.39-16.8v16.8h-4.83Z"/>
  <path class="cls-1" d="M170.64,26.21V.44h5.2v25.77h-5.2Z"/>
  <path class="cls-1" d="M180.78.44h9.51c2.14,0,3.78.16,4.9.49,1.51.45,2.81,1.24,3.88,2.37s1.9,2.53,2.46,4.17.84,3.68.84,6.09c0,2.12-.26,3.95-.79,5.48-.64,1.88-1.56,3.39-2.76,4.55-.9.88-2.12,1.56-3.66,2.06-1.15.36-2.68.54-4.61.54h-9.79V.44ZM185.98,4.8v17.07h3.88c1.45,0,2.5-.08,3.15-.25.84-.21,1.54-.57,2.1-1.07s1.01-1.33,1.36-2.49.53-2.73.53-4.72-.18-3.52-.53-4.59-.84-1.9-1.48-2.5-1.44-1-2.41-1.21c-.73-.16-2.15-.25-4.27-.25h-2.34Z"/>
  <path class="cls-1" d="M230.03,26.21h-5.66l-2.25-5.85h-10.3l-2.13,5.85h-5.52L214.21.44h5.5l10.32,25.77ZM220.45,16.01l-3.55-9.56-3.48,9.56h7.03Z"/>
  <path class="cls-1" d="M263.36,26.21h-5.66l-2.25-5.85h-10.3l-2.13,5.85h-5.52L247.54.44h5.5l10.32,25.77ZM253.78,16.01l-3.55-9.56-3.48,9.56h7.03Z"/>
  <path class="cls-1" d="M278.11,16.73v-4.34h11.21v10.27c-1.09,1.05-2.67,1.98-4.74,2.79s-4.16,1.2-6.28,1.2c-2.7,0-5.04-.57-7.05-1.7s-3.51-2.75-4.52-4.85-1.51-4.39-1.51-6.86c0-2.68.56-5.07,1.69-7.15s2.77-3.69,4.94-4.8c1.65-.86,3.71-1.28,6.17-1.28,3.2,0,5.7.67,7.5,2.01s2.96,3.2,3.47,5.56l-5.17.97c-.36-1.27-1.05-2.26-2.05-3s-2.25-1.1-3.75-1.1c-2.27,0-4.08.72-5.42,2.16s-2.01,3.58-2.01,6.42c0,3.06.68,5.35,2.04,6.88s3.14,2.29,5.34,2.29c1.09,0,2.18-.21,3.28-.64s2.04-.95,2.82-1.56v-3.27h-5.96Z"/>
  <path class="cls-1" d="M294.14,26.21V.44h10.95c2.75,0,4.75.23,6,.69s2.25,1.29,3,2.47,1.12,2.54,1.12,4.06c0,1.93-.57,3.53-1.71,4.79s-2.84,2.05-5.1,2.38c1.12.66,2.05,1.38,2.79,2.16s1.72,2.18,2.96,4.18l3.15,5.03h-6.22l-3.76-5.61c-1.34-2-2.25-3.27-2.74-3.79s-1.01-.88-1.56-1.07-1.42-.29-2.62-.29h-1.05v10.76h-5.2ZM299.34,11.34h3.85c2.5,0,4.05-.11,4.68-.32s1.11-.57,1.46-1.09.53-1.16.53-1.93c0-.87-.23-1.57-.69-2.1s-1.12-.87-1.96-1.01c-.42-.06-1.69-.09-3.8-.09h-4.06v6.54Z"/>
  <path class="cls-1" d="M319.06,13.48c0-2.62.39-4.83,1.18-6.61.59-1.31,1.39-2.49,2.4-3.53s2.12-1.82,3.33-2.32c1.61-.68,3.46-1.02,5.55-1.02,3.8,0,6.83,1.18,9.11,3.53s3.42,5.63,3.42,9.83-1.13,7.42-3.39,9.76-5.29,3.52-9.07,3.52-6.88-1.17-9.14-3.51-3.39-5.56-3.39-9.66ZM324.43,13.31c0,2.92.67,5.13,2.02,6.64s3.06,2.26,5.13,2.26,3.78-.75,5.11-2.24,2-3.74,2-6.72-.65-5.16-1.94-6.61-3.01-2.18-5.16-2.18-3.87.74-5.19,2.21-1.97,3.69-1.97,6.65Z"/>
  <path class="cls-1" d="M358.26,26.21V.65h5.2v21.22h12.94v4.34h-18.14Z"/>
  <path class="cls-1" d="M380.11,26.21V.44h19.11v4.36h-13.9v5.71h12.94v4.34h-12.94v7.01h14.4v4.34h-19.6Z"/>
  <path class="cls-1" d="M402.81,17.82l5.06-.49c.3,1.7.92,2.95,1.85,3.74s2.19,1.2,3.77,1.2c1.68,0,2.94-.35,3.79-1.06s1.27-1.54,1.27-2.49c0-.61-.18-1.13-.54-1.56s-.98-.8-1.87-1.12c-.61-.21-2-.59-4.17-1.12-2.79-.69-4.75-1.54-5.87-2.55-1.58-1.42-2.37-3.15-2.37-5.19,0-1.31.37-2.54,1.12-3.68s1.82-2.01,3.22-2.61,3.09-.9,5.07-.9c3.23,0,5.67.71,7.3,2.13s2.49,3.31,2.58,5.68l-5.2.23c-.22-1.32-.7-2.28-1.43-2.86s-1.83-.87-3.3-.87-2.7.31-3.55.93c-.55.4-.83.93-.83,1.6,0,.61.26,1.13.77,1.56.66.55,2.25,1.12,4.78,1.72s4.4,1.22,5.62,1.85,2.16,1.51,2.85,2.62,1.03,2.48,1.03,4.1c0,1.48-.41,2.86-1.23,4.15s-1.98,2.25-3.48,2.87-3.37.94-5.61.94c-3.26,0-5.76-.75-7.51-2.26s-2.79-3.7-3.13-6.58Z"/>
  <path class="cls-1" d="M433.94,26.21V4.8h-7.65V.44h20.48v4.36h-7.63v21.41h-5.2Z"/>
  <path class="cls-1" d="M470.69,26.21h-5.66l-2.25-5.85h-10.3l-2.13,5.85h-5.52L454.87.44h5.5l10.32,25.77ZM461.11,16.01l-3.55-9.56-3.48,9.56h7.03Z"/>
  <path class="cls-1" d="M473.47,26.21V.44h10.95c2.75,0,4.75.23,6,.69s2.25,1.29,3,2.47,1.12,2.54,1.12,4.06c0,1.93-.57,3.53-1.71,4.79s-2.84,2.05-5.1,2.38c1.12.66,2.05,1.38,2.79,2.16s1.72,2.18,2.96,4.18l3.15,5.03h-6.22l-3.76-5.61c-1.34-2-2.25-3.27-2.74-3.79s-1.01-.88-1.56-1.07-1.42-.29-2.62-.29h-1.05v10.76h-5.2ZM478.67,11.34h3.85c2.5,0,4.05-.11,4.68-.32s1.11-.57,1.46-1.09.53-1.16.53-1.93c0-.87-.23-1.57-.69-2.1s-1.12-.87-1.96-1.01c-.42-.06-1.69-.09-3.8-.09h-4.06v6.54Z"/>
  <path class="cls-1" d="M499.29,26.21V.44h5.2v25.77h-5.2Z"/>
  <path class="cls-1" d="M10.07,55.67l3.8-.37c.23,1.27.69,2.21,1.39,2.81.7.6,1.64.9,2.83.9,1.26,0,2.2-.27,2.84-.8.64-.53.96-1.15.96-1.87,0-.46-.13-.85-.4-1.17-.27-.32-.74-.6-1.4-.84-.46-.16-1.5-.44-3.12-.84-2.09-.52-3.56-1.16-4.4-1.91-1.19-1.06-1.78-2.36-1.78-3.89,0-.98.28-1.91.84-2.76.56-.86,1.36-1.51,2.41-1.96s2.32-.67,3.8-.67c2.43,0,4.25.53,5.48,1.6,1.23,1.06,1.87,2.48,1.93,4.26l-3.9.17c-.17-.99-.53-1.71-1.07-2.14-.55-.43-1.37-.65-2.47-.65s-2.02.23-2.66.7c-.41.3-.62.7-.62,1.2,0,.46.19.85.58,1.17.49.41,1.69.84,3.59,1.29s3.3.91,4.21,1.39c.91.48,1.62,1.13,2.14,1.96.51.83.77,1.86.77,3.08,0,1.11-.31,2.14-.92,3.11s-1.49,1.69-2.61,2.16c-1.12.47-2.53.71-4.21.71-2.44,0-4.32-.56-5.63-1.69-1.31-1.13-2.09-2.77-2.35-4.94Z"/>
  <path class="cls-1" d="M28.95,61.95v-19.33h3.9v19.33h-3.9Z"/>
  <path class="cls-1" d="M35.58,55.67l3.8-.37c.23,1.27.69,2.21,1.39,2.81.7.6,1.64.9,2.83.9,1.26,0,2.2-.27,2.84-.8.64-.53.96-1.15.96-1.87,0-.46-.13-.85-.4-1.17-.27-.32-.74-.6-1.4-.84-.46-.16-1.5-.44-3.12-.84-2.09-.52-3.56-1.16-4.4-1.91-1.19-1.06-1.78-2.36-1.78-3.89,0-.98.28-1.91.84-2.76.56-.86,1.36-1.51,2.41-1.96s2.32-.67,3.8-.67c2.43,0,4.25.53,5.48,1.6,1.23,1.06,1.87,2.48,1.93,4.26l-3.9.17c-.17-.99-.53-1.71-1.07-2.14-.55-.43-1.37-.65-2.47-.65s-2.02.23-2.66.7c-.41.3-.62.7-.62,1.2,0,.46.19.85.58,1.17.49.41,1.69.84,3.59,1.29s3.3.91,4.21,1.39c.91.48,1.62,1.13,2.14,1.96.51.83.77,1.86.77,3.08,0,1.11-.31,2.14-.92,3.11s-1.49,1.69-2.61,2.16c-1.12.47-2.53.71-4.21.71-2.44,0-4.32-.56-5.63-1.69-1.31-1.13-2.09-2.77-2.35-4.94Z"/>
  <path class="cls-1" d="M58.93,61.95v-16.06h-5.73v-3.27h15.36v3.27h-5.72v16.06h-3.9Z"/>
  <path class="cls-1" d="M71.07,61.95v-19.33h14.33v3.27h-10.43v4.28h9.7v3.26h-9.7v5.26h10.8v3.26h-14.7Z"/>
  <path class="cls-1" d="M89.03,61.95v-19.33h5.84l3.51,13.18,3.47-13.18h5.85v19.33h-3.63v-15.21l-3.84,15.21h-3.76l-3.82-15.21v15.21h-3.63Z"/>
  <path class="cls-1" d="M118.96,61.95v-19.33h3.9v19.33h-3.9Z"/>
  <path class="cls-1" d="M126.61,61.95v-19.33h3.8l7.91,12.91v-12.91h3.63v19.33h-3.92l-7.79-12.6v12.6h-3.63Z"/>
  <path class="cls-1" d="M146.1,61.95v-19.33h13.25v3.27h-9.35v4.57h8.07v3.27h-8.07v8.21h-3.9Z"/>
  <path class="cls-1" d="M161.78,52.41c0-1.97.29-3.62.88-4.96.44-.98,1.04-1.87,1.8-2.65.76-.78,1.59-1.36,2.5-1.74,1.2-.51,2.59-.76,4.17-.76,2.85,0,5.13.88,6.84,2.65,1.71,1.77,2.56,4.22,2.56,7.37s-.85,5.56-2.54,7.32-3.96,2.64-6.8,2.64-5.16-.88-6.86-2.63c-1.7-1.75-2.54-4.17-2.54-7.24ZM165.8,52.28c0,2.19.51,3.85,1.52,4.98,1.01,1.13,2.29,1.69,3.85,1.69s2.83-.56,3.83-1.68c1-1.12,1.5-2.8,1.5-5.04s-.49-3.87-1.46-4.96c-.97-1.09-2.26-1.63-3.87-1.63s-2.9.55-3.89,1.65c-.98,1.1-1.48,2.77-1.48,4.99Z"/>
  <path class="cls-1" d="M183.58,61.95v-19.33h8.21c2.07,0,3.57.17,4.5.52.94.35,1.69.96,2.25,1.85s.84,1.9.84,3.05c0,1.45-.43,2.65-1.28,3.59-.85.95-2.13,1.54-3.82,1.79.84.49,1.54,1.03,2.09,1.62.55.59,1.29,1.63,2.22,3.14l2.36,3.77h-4.67l-2.82-4.21c-1-1.5-1.69-2.45-2.06-2.84-.37-.39-.76-.66-1.17-.8-.41-.15-1.07-.22-1.96-.22h-.79v8.07h-3.9ZM187.48,50.8h2.89c1.87,0,3.04-.08,3.51-.24s.83-.43,1.09-.82.4-.87.4-1.45c0-.65-.17-1.18-.52-1.58-.35-.4-.84-.65-1.47-.76-.32-.04-1.27-.07-2.85-.07h-3.05v4.9Z"/>
  <path class="cls-1" d="M203.01,61.95v-19.33h5.84l3.51,13.18,3.47-13.18h5.85v19.33h-3.63v-15.21l-3.84,15.21h-3.76l-3.82-15.21v15.21h-3.63Z"/>
  <path class="cls-1" d="M242.99,61.95h-4.25l-1.69-4.39h-7.73l-1.6,4.39h-4.14l7.53-19.33h4.13l7.74,19.33ZM235.8,54.31l-2.66-7.17-2.61,7.17h5.27Z"/>
  <path class="cls-1" d="M244.07,55.67l3.8-.37c.23,1.27.69,2.21,1.39,2.81.7.6,1.64.9,2.83.9,1.26,0,2.2-.27,2.84-.8.64-.53.96-1.15.96-1.87,0-.46-.13-.85-.4-1.17-.27-.32-.74-.6-1.4-.84-.46-.16-1.5-.44-3.12-.84-2.09-.52-3.56-1.16-4.4-1.91-1.19-1.06-1.78-2.36-1.78-3.89,0-.98.28-1.91.84-2.76.56-.86,1.36-1.51,2.41-1.96s2.32-.67,3.8-.67c2.43,0,4.25.53,5.48,1.6,1.23,1.06,1.87,2.48,1.93,4.26l-3.9.17c-.17-.99-.53-1.71-1.07-2.14-.55-.43-1.37-.65-2.47-.65s-2.02.23-2.66.7c-.41.3-.62.7-.62,1.2,0,.46.19.85.58,1.17.49.41,1.69.84,3.59,1.29s3.3.91,4.21,1.39c.91.48,1.62,1.13,2.14,1.96.51.83.77,1.86.77,3.08,0,1.11-.31,2.14-.92,3.11s-1.49,1.69-2.61,2.16c-1.12.47-2.53.71-4.21.71-2.44,0-4.32-.56-5.63-1.69-1.31-1.13-2.09-2.77-2.35-4.94Z"/>
  <path class="cls-1" d="M262.95,61.95v-19.33h3.9v19.33h-3.9Z"/>
  <path class="cls-1" d="M278.12,61.95v-19.33h3.9v8.58l7.88-8.58h5.25l-7.28,7.53,7.67,11.8h-5.05l-5.31-9.07-3.17,3.23v5.84h-3.9Z"/>
  <path class="cls-1" d="M297.57,61.95v-19.33h14.33v3.27h-10.43v4.28h9.7v3.26h-9.7v5.26h10.8v3.26h-14.7Z"/>
  <path class="cls-1" d="M319.93,61.95v-16.06h-5.73v-3.27h15.36v3.27h-5.72v16.06h-3.9Z"/>
  <path class="cls-1" d="M347.49,61.95h-4.24l-1.69-4.39h-7.73l-1.59,4.39h-4.14l7.53-19.33h4.13l7.74,19.33ZM340.31,54.31l-2.66-7.17-2.61,7.17h5.27Z"/>
  <path class="cls-1" d="M351.91,61.95v-16.06h-5.73v-3.27h15.36v3.27h-5.72v16.06h-3.9Z"/>
  <path class="cls-1" d="M379.48,61.95h-4.24l-1.69-4.39h-7.73l-1.59,4.39h-4.14l7.53-19.33h4.13l7.74,19.33ZM372.29,54.31l-2.66-7.17-2.61,7.17h5.27Z"/>
  <path class="cls-1" d="M381.52,42.63h3.9v10.47c0,1.66.05,2.74.15,3.23.17.79.56,1.43,1.19,1.9.63.48,1.49.72,2.58.72s1.94-.23,2.5-.68.9-1.01,1.01-1.67.17-1.75.17-3.28v-10.69h3.9v10.15c0,2.32-.11,3.96-.32,4.92s-.6,1.77-1.17,2.43c-.57.66-1.33,1.18-2.27,1.58-.95.39-2.19.59-3.72.59-1.85,0-3.25-.21-4.2-.64-.95-.43-1.71-.98-2.26-1.66-.55-.68-.92-1.4-1.09-2.14-.25-1.11-.38-2.74-.38-4.9v-10.31Z"/>
  <path class="cls-1" d="M400.06,55.67l3.8-.37c.23,1.27.69,2.21,1.39,2.81.7.6,1.64.9,2.83.9,1.26,0,2.2-.27,2.84-.8.64-.53.96-1.15.96-1.87,0-.46-.13-.85-.4-1.17-.27-.32-.74-.6-1.4-.84-.46-.16-1.5-.44-3.12-.84-2.09-.52-3.56-1.16-4.4-1.91-1.19-1.06-1.78-2.36-1.78-3.89,0-.98.28-1.91.84-2.76.56-.86,1.36-1.51,2.41-1.96,1.05-.45,2.32-.67,3.8-.67,2.43,0,4.25.53,5.48,1.6,1.23,1.06,1.87,2.48,1.93,4.26l-3.9.17c-.17-.99-.53-1.71-1.07-2.14-.55-.43-1.37-.65-2.47-.65s-2.02.23-2.66.7c-.41.3-.62.7-.62,1.2,0,.46.19.85.58,1.17.49.41,1.69.84,3.59,1.29s3.3.91,4.21,1.39c.91.48,1.62,1.13,2.14,1.96.51.83.77,1.86.77,3.08,0,1.11-.31,2.14-.92,3.11s-1.49,1.69-2.61,2.16c-1.12.47-2.53.71-4.21.71-2.44,0-4.32-.56-5.63-1.69-1.31-1.13-2.09-2.77-2.35-4.94Z"/>
  <path class="cls-1" d="M436.48,61.95h-4.24l-1.69-4.39h-7.73l-1.59,4.39h-4.14l7.53-19.33h4.13l7.74,19.33ZM429.3,54.31l-2.66-7.17-2.61,7.17h5.27Z"/>
  <path class="cls-1" d="M438.57,61.95v-19.33h3.9v7.61h7.65v-7.61h3.9v19.33h-3.9v-8.45h-7.65v8.45h-3.9Z"/>
  <path class="cls-1" d="M475.48,61.95h-4.24l-1.69-4.39h-7.73l-1.59,4.39h-4.14l7.53-19.33h4.13l7.74,19.33ZM468.29,54.31l-2.66-7.17-2.61,7.17h5.27Z"/>
  <path class="cls-1" d="M494.98,61.95h-4.24l-1.69-4.39h-7.73l-1.59,4.39h-4.14l7.53-19.33h4.13l7.74,19.33ZM487.79,54.31l-2.66-7.17-2.61,7.17h5.27Z"/>
  <path class="cls-1" d="M497.09,61.95v-19.33h3.8l7.91,12.91v-12.91h3.62v19.33h-3.92l-7.79-12.6v12.6h-3.62Z"/>
  <path class="cls-1" d="M40.44,83.41l1.2-.16c.03.77.18,1.29.43,1.57s.61.42,1.06.42c.33,0,.62-.08.86-.23s.41-.36.5-.62.14-.68.14-1.25v-6.9h1.33v6.83c0,.84-.1,1.49-.3,1.95s-.52.81-.96,1.05c-.44.24-.96.36-1.55.36-.88,0-1.55-.25-2.02-.76s-.69-1.26-.67-2.26Z"/>
  <path class="cls-1" d="M47.93,86.25v-10.02h1.23v10.02h-1.23Z"/>
  <path class="cls-1" d="M51.42,86.25v-1.4h1.4v1.4h-1.4Z"/>
  <path class="cls-1" d="M59.05,86.25v-10.02h1.33v4.12h5.21v-4.12h1.33v10.02h-1.33v-4.72h-5.21v4.72h-1.33Z"/>
  <path class="cls-1" d="M69.31,86.25v-1.4h1.4v1.4h-1.4Z"/>
  <path class="cls-1" d="M76.94,86.25v-10.02h1.33v4.12h5.21v-4.12h1.33v10.02h-1.33v-4.72h-5.21v4.72h-1.33Z"/>
  <path class="cls-1" d="M91.59,85.36c-.46.39-.89.66-1.32.82-.42.16-.87.24-1.36.24-.8,0-1.41-.19-1.84-.58s-.64-.89-.64-1.49c0-.36.08-.68.24-.97s.37-.53.64-.71.56-.31.89-.4c.24-.06.61-.13,1.09-.18.99-.12,1.73-.26,2.19-.42,0-.17,0-.28,0-.32,0-.5-.12-.85-.35-1.06-.31-.28-.78-.42-1.4-.42-.58,0-1.01.1-1.28.3s-.48.56-.61,1.08l-1.2-.16c.11-.52.29-.93.54-1.25s.61-.56,1.09-.73,1.02-.26,1.65-.26,1.12.07,1.51.22.67.33.85.55.31.5.38.84c.04.21.06.59.06,1.13v1.64c0,1.14.03,1.87.08,2.17s.16.59.31.87h-1.29c-.13-.26-.21-.55-.25-.9ZM91.48,82.61c-.45.18-1.12.34-2.01.46-.51.07-.86.15-1.07.25s-.37.22-.49.4-.17.37-.17.58c0,.33.12.6.37.82s.61.33,1.09.33.9-.1,1.26-.31.64-.49.81-.85c.13-.28.2-.69.2-1.23v-.45Z"/>
  <path class="cls-1" d="M99.35,86.25v-.92c-.46.72-1.14,1.08-2.03,1.08-.58,0-1.11-.16-1.6-.48-.49-.32-.86-.76-1.13-1.34s-.4-1.23-.4-1.97.12-1.38.36-1.97.6-1.04,1.09-1.36,1.02-.47,1.62-.47c.44,0,.83.09,1.17.28s.62.42.83.72v-3.6h1.22v10.02h-1.14ZM95.46,82.63c0,.93.2,1.62.59,2.08s.85.69,1.39.69.99-.22,1.37-.66.56-1.11.56-2.01c0-.99-.19-1.72-.57-2.19s-.85-.7-1.42-.7-1,.22-1.37.67-.55,1.15-.55,2.11Z"/>
  <path class="cls-1" d="M107.16,85.36c-.46.39-.89.66-1.32.82-.42.16-.87.24-1.36.24-.8,0-1.41-.19-1.84-.58s-.64-.89-.64-1.49c0-.36.08-.68.24-.97s.37-.53.64-.71.56-.31.89-.4c.24-.06.61-.13,1.09-.18.99-.12,1.73-.26,2.19-.42,0-.17,0-.28,0-.32,0-.5-.12-.85-.35-1.06-.31-.28-.78-.42-1.4-.42-.58,0-1.01.1-1.28.3s-.48.56-.61,1.08l-1.2-.16c.11-.52.29-.93.54-1.25s.61-.56,1.09-.73,1.02-.26,1.65-.26,1.12.07,1.51.22.67.33.85.55.31.5.38.84c.04.21.06.59.06,1.13v1.64c0,1.14.03,1.87.08,2.17s.16.59.31.87h-1.29c-.13-.26-.21-.55-.25-.9ZM107.06,82.61c-.45.18-1.12.34-2.01.46-.51.07-.86.15-1.07.25s-.37.22-.49.4-.17.37-.17.58c0,.33.12.6.37.82s.61.33,1.09.33.9-.1,1.26-.31.64-.49.81-.85c.13-.28.2-.69.2-1.23v-.45Z"/>
  <path class="cls-1" d="M110.19,86.25v-7.26h1.11v1.1c.28-.52.54-.85.78-1.02s.5-.25.79-.25c.41,0,.84.13,1.26.4l-.42,1.14c-.3-.18-.6-.27-.9-.27-.27,0-.51.08-.72.24s-.37.39-.46.67c-.14.44-.21.92-.21,1.44v3.8h-1.23Z"/>
  <path class="cls-1" d="M114.88,77.65v-1.42h1.23v1.42h-1.23ZM114.88,86.25v-7.26h1.23v7.26h-1.23Z"/>
  <path class="cls-1" d="M122.72,85.36c-.46.39-.89.66-1.32.82-.42.16-.87.24-1.36.24-.8,0-1.41-.19-1.84-.58s-.64-.89-.64-1.49c0-.36.08-.68.24-.97s.37-.53.64-.71.56-.31.89-.4c.24-.06.61-.13,1.09-.18.99-.12,1.73-.26,2.19-.42,0-.17,0-.28,0-.32,0-.5-.12-.85-.35-1.06-.31-.28-.78-.42-1.4-.42-.58,0-1.01.1-1.28.3s-.48.56-.61,1.08l-1.2-.16c.11-.52.29-.93.54-1.25s.61-.56,1.09-.73,1.02-.26,1.65-.26,1.12.07,1.51.22.67.33.85.55.31.5.38.84c.04.21.06.59.06,1.13v1.64c0,1.14.03,1.87.08,2.17s.16.59.31.87h-1.29c-.13-.26-.21-.55-.25-.9ZM122.61,82.61c-.45.18-1.12.34-2.01.46-.51.07-.86.15-1.07.25s-.37.22-.49.4-.17.37-.17.58c0,.33.12.6.37.82s.61.33,1.09.33.9-.1,1.26-.31.64-.49.81-.85c.13-.28.2-.69.2-1.23v-.45Z"/>
  <path class="cls-1" d="M125.77,86.25v-10.02h1.23v3.6c.57-.67,1.3-1,2.17-1,.54,0,1,.11,1.4.32s.68.5.85.88.26.92.26,1.63v4.6h-1.23v-4.6c0-.62-.13-1.06-.4-1.34s-.64-.42-1.13-.42c-.36,0-.71.09-1.03.28s-.55.45-.69.77-.21.77-.21,1.34v3.97h-1.23Z"/>
  <path class="cls-1" d="M133.87,86.25v-1.4h1.4v1.4c0,.51-.09.93-.27,1.25-.18.32-.47.56-.87.73l-.34-.53c.26-.11.45-.28.57-.5.12-.22.19-.54.21-.95h-.7Z"/>
  <path class="cls-1" d="M148.06,76.23h1.33v5.79c0,1.01-.11,1.81-.34,2.4s-.64,1.07-1.23,1.45-1.38.56-2.34.56-1.71-.16-2.3-.49c-.6-.32-1.02-.79-1.28-1.4s-.38-1.45-.38-2.51v-5.79h1.33v5.78c0,.87.08,1.51.24,1.92s.44.73.83.95.88.33,1.45.33c.98,0,1.67-.22,2.08-.66s.62-1.29.62-2.55v-5.78Z"/>
  <path class="cls-1" d="M151.41,86.25v-10.02h1.23v10.02h-1.23Z"/>
  <path class="cls-1" d="M159.31,86.25v-1.07c-.56.82-1.33,1.23-2.3,1.23-.43,0-.83-.08-1.2-.25s-.65-.37-.83-.62-.31-.55-.38-.91c-.05-.24-.08-.62-.08-1.15v-4.5h1.23v4.03c0,.64.02,1.08.08,1.3.08.32.24.58.49.76s.56.28.93.28.72-.09,1.04-.28.55-.45.69-.77.2-.8.2-1.42v-3.89h1.23v7.26h-1.1Z"/>
  <path class="cls-1" d="M166.33,86.25v-10.02h3.76c.77,0,1.38.1,1.84.3s.82.52,1.09.94.39.86.39,1.32c0,.43-.12.83-.35,1.21s-.58.68-1.05.92c.61.18,1.07.48,1.4.91s.49.93.49,1.52c0,.47-.1.91-.3,1.31s-.44.71-.73.93-.66.38-1.1.5-.98.17-1.62.17h-3.82ZM167.66,80.44h2.17c.59,0,1.01-.04,1.26-.12.34-.1.59-.27.76-.5s.26-.52.26-.88c0-.33-.08-.63-.24-.88s-.39-.43-.68-.52-.8-.14-1.52-.14h-2v3.03ZM167.66,85.07h2.5c.43,0,.73-.02.9-.05.31-.05.56-.15.77-.27s.37-.31.51-.56.2-.53.2-.84c0-.37-.1-.7-.29-.97s-.46-.47-.8-.58-.83-.17-1.47-.17h-2.32v3.45Z"/>
  <path class="cls-1" d="M180.54,83.92l1.27.16c-.2.74-.57,1.32-1.11,1.73s-1.23.62-2.08.62c-1.06,0-1.9-.33-2.53-.98s-.93-1.57-.93-2.75.31-2.17.94-2.84,1.44-1.01,2.45-1.01,1.76.33,2.38.99.92,1.59.92,2.79c0,.07,0,.18,0,.33h-5.41c.05.8.27,1.41.68,1.83s.91.64,1.52.64c.45,0,.84-.12,1.16-.36s.57-.62.76-1.13ZM176.5,81.93h4.05c-.05-.61-.21-1.07-.46-1.37-.39-.47-.9-.71-1.52-.71-.56,0-1.04.19-1.43.57s-.6.88-.64,1.52Z"/>
  <path class="cls-1" d="M183.35,86.25v-7.26h1.11v1.03c.53-.8,1.3-1.2,2.31-1.2.44,0,.84.08,1.21.24s.64.36.82.62.31.56.38.91c.05.23.07.63.07,1.2v4.46h-1.23v-4.42c0-.5-.05-.88-.14-1.12s-.27-.45-.51-.59-.53-.22-.86-.22c-.52,0-.98.17-1.36.5s-.57.96-.57,1.89v3.96h-1.23Z"/>
  <path class="cls-1" d="M193.82,85.15l.18,1.09c-.35.07-.66.11-.93.11-.45,0-.79-.07-1.04-.21-.25-.14-.42-.33-.52-.56s-.15-.71-.15-1.45v-4.18h-.9v-.96h.9v-1.8l1.22-.74v2.54h1.24v.96h-1.24v4.25c0,.35.02.58.06.68s.11.18.21.24.24.09.42.09c.14,0,.32-.02.54-.05Z"/>
  <path class="cls-1" d="M200,83.92l1.27.16c-.2.74-.57,1.32-1.11,1.73s-1.23.62-2.08.62c-1.06,0-1.9-.33-2.53-.98s-.93-1.57-.93-2.75.31-2.17.94-2.84,1.44-1.01,2.45-1.01,1.76.33,2.38.99.92,1.59.92,2.79c0,.07,0,.18,0,.33h-5.41c.05.8.27,1.41.68,1.83s.91.64,1.52.64c.45,0,.84-.12,1.16-.36s.57-.62.76-1.13ZM195.96,81.93h4.05c-.05-.61-.21-1.07-.46-1.37-.39-.47-.9-.71-1.52-.71-.56,0-1.04.19-1.43.57s-.6.88-.64,1.52Z"/>
  <path class="cls-1" d="M202.81,86.25v-7.26h1.11v1.03c.53-.8,1.3-1.2,2.31-1.2.44,0,.84.08,1.21.24s.64.36.82.62.31.56.38.91c.05.23.07.63.07,1.2v4.46h-1.23v-4.42c0-.5-.05-.88-.14-1.12s-.27-.45-.51-.59-.53-.22-.86-.22c-.52,0-.98.17-1.36.5s-.57.96-.57,1.89v3.96h-1.23Z"/>
  <path class="cls-1" d="M210.37,86.86l1.2.18c.05.37.19.64.42.81.31.23.72.34,1.25.34.57,0,1.01-.11,1.32-.34s.52-.55.63-.96c.06-.25.09-.78.09-1.58-.54.63-1.21.95-2.01.95-1,0-1.77-.36-2.32-1.08s-.82-1.58-.82-2.59c0-.69.13-1.33.38-1.92s.61-1.04,1.09-1.36,1.04-.48,1.68-.48c.86,0,1.56.35,2.12,1.04v-.88h1.13v6.28c0,1.13-.12,1.93-.35,2.4-.23.47-.59.84-1.09,1.12s-1.11.41-1.84.41c-.87,0-1.57-.19-2.1-.58-.53-.39-.79-.98-.77-1.76ZM211.39,82.5c0,.95.19,1.65.57,2.08s.85.66,1.42.66,1.04-.22,1.42-.65.57-1.12.57-2.05-.2-1.56-.59-2.01-.87-.68-1.43-.68-1.01.22-1.39.67-.57,1.1-.57,1.98Z"/>
  <path class="cls-1" d="M218.71,86.25v-1.4h1.4v1.4c0,.51-.09.93-.27,1.25-.18.32-.47.56-.87.73l-.34-.53c.26-.11.45-.28.57-.5.12-.22.19-.54.21-.95h-.7Z"/>
  <path class="cls-1" d="M226.27,86.25v-10.02h1.33v4.97l4.98-4.97h1.8l-4.2,4.06,4.39,5.96h-1.75l-3.57-5.07-1.64,1.6v3.47h-1.33Z"/>
  <path class="cls-1" d="M240.47,83.92l1.27.16c-.2.74-.57,1.32-1.11,1.73s-1.23.62-2.08.62c-1.06,0-1.9-.33-2.53-.98s-.93-1.57-.93-2.75.31-2.17.94-2.84,1.44-1.01,2.45-1.01,1.76.33,2.38.99.92,1.59.92,2.79c0,.07,0,.18,0,.33h-5.41c.05.8.27,1.41.68,1.83s.91.64,1.52.64c.45,0,.84-.12,1.16-.36s.57-.62.76-1.13ZM236.43,81.93h4.05c-.05-.61-.21-1.07-.46-1.37-.39-.47-.9-.71-1.52-.71-.56,0-1.04.19-1.43.57s-.6.88-.64,1.52Z"/>
  <path class="cls-1" d="M248.03,83.6l1.21.16c-.13.83-.47,1.49-1.02,1.96s-1.21.71-2.01.71c-.99,0-1.79-.32-2.4-.97s-.91-1.58-.91-2.79c0-.78.13-1.47.39-2.06s.66-1.03,1.19-1.32,1.11-.44,1.73-.44c.79,0,1.43.2,1.93.6s.82.96.96,1.7l-1.2.18c-.11-.49-.32-.85-.6-1.1s-.64-.37-1.05-.37c-.62,0-1.12.22-1.51.67s-.58,1.15-.58,2.11.19,1.68.56,2.13.86.66,1.46.66c.48,0,.89-.15,1.21-.44s.53-.75.62-1.37Z"/>
  <path class="cls-1" d="M250.64,86.25v-1.4h1.4v1.4h-1.4Z"/>
  <path class="cls-1" d="M258.19,86.25v-10.02h2l2.37,7.1c.22.66.38,1.16.48,1.48.11-.36.29-.9.53-1.61l2.4-6.97h1.79v10.02h-1.28v-8.39l-2.91,8.39h-1.2l-2.9-8.53v8.53h-1.28Z"/>
  <path class="cls-1" d="M274.47,85.36c-.46.39-.89.66-1.32.82-.42.16-.87.24-1.36.24-.8,0-1.41-.19-1.84-.58s-.64-.89-.64-1.49c0-.36.08-.68.24-.97.16-.29.37-.53.64-.71.26-.18.56-.31.88-.4.24-.06.61-.13,1.09-.18.99-.12,1.72-.26,2.19-.42,0-.17,0-.28,0-.32,0-.5-.12-.85-.35-1.06-.31-.28-.78-.42-1.4-.42-.58,0-1.01.1-1.28.3-.28.2-.48.56-.61,1.08l-1.2-.16c.11-.52.29-.93.54-1.25s.61-.56,1.09-.73,1.02-.26,1.65-.26,1.12.07,1.51.22.67.33.85.55.31.5.38.84c.04.21.06.59.06,1.13v1.64c0,1.14.03,1.87.08,2.17.05.3.16.59.31.87h-1.29c-.13-.26-.21-.55-.25-.9ZM274.37,82.61c-.45.18-1.12.34-2.01.46-.51.07-.86.15-1.07.25s-.37.22-.49.4-.17.37-.17.58c0,.33.12.6.37.82.25.22.61.33,1.09.33s.9-.1,1.26-.31.64-.49.81-.85c.13-.28.2-.69.2-1.23v-.45Z"/>
  <path class="cls-1" d="M277.5,86.25v-7.26h1.11v1.1c.28-.52.54-.85.78-1.02.24-.16.5-.25.79-.25.42,0,.84.13,1.26.4l-.42,1.14c-.3-.18-.6-.27-.9-.27-.27,0-.51.08-.72.24s-.37.39-.46.67c-.14.44-.21.92-.21,1.44v3.8h-1.23Z"/>
  <path class="cls-1" d="M286.92,85.36c-.46.39-.89.66-1.32.82-.42.16-.87.24-1.36.24-.8,0-1.41-.19-1.84-.58s-.64-.89-.64-1.49c0-.36.08-.68.24-.97.16-.29.37-.53.64-.71.26-.18.56-.31.88-.4.24-.06.61-.13,1.09-.18.99-.12,1.72-.26,2.19-.42,0-.17,0-.28,0-.32,0-.5-.12-.85-.35-1.06-.31-.28-.78-.42-1.4-.42-.58,0-1.01.1-1.28.3-.28.2-.48.56-.61,1.08l-1.2-.16c.11-.52.29-.93.54-1.25s.61-.56,1.09-.73,1.02-.26,1.65-.26,1.12.07,1.51.22.67.33.85.55.31.5.38.84c.04.21.06.59.06,1.13v1.64c0,1.14.03,1.87.08,2.17.05.3.16.59.31.87h-1.29c-.13-.26-.21-.55-.25-.9ZM286.81,82.61c-.45.18-1.12.34-2.01.46-.51.07-.86.15-1.07.25s-.37.22-.49.4-.17.37-.17.58c0,.33.12.6.37.82.25.22.61.33,1.09.33s.9-.1,1.26-.31.64-.49.81-.85c.13-.28.2-.69.2-1.23v-.45Z"/>
  <path class="cls-1" d="M291.1,86.25h-1.14v-10.02h1.23v3.58c.52-.65,1.18-.98,1.99-.98.45,0,.87.09,1.27.27.4.18.73.43.98.76.26.33.46.72.6,1.18s.22.95.22,1.48c0,1.24-.31,2.21-.92,2.88s-1.35,1.02-2.21,1.02-1.53-.36-2.02-1.07v.91ZM291.09,82.57c0,.87.12,1.5.36,1.89.39.63.91.95,1.57.95.54,0,1-.23,1.39-.7s.59-1.16.59-2.09-.19-1.65-.56-2.1c-.38-.45-.83-.68-1.36-.68s-1,.23-1.39.7-.59,1.14-.59,2.03Z"/>
  <path class="cls-1" d="M302.49,85.36c-.46.39-.89.66-1.32.82-.42.16-.87.24-1.36.24-.8,0-1.41-.19-1.84-.58s-.64-.89-.64-1.49c0-.36.08-.68.24-.97.16-.29.37-.53.64-.71.26-.18.56-.31.88-.4.24-.06.61-.13,1.09-.18.99-.12,1.72-.26,2.19-.42,0-.17,0-.28,0-.32,0-.5-.12-.85-.35-1.06-.31-.28-.78-.42-1.4-.42-.58,0-1.01.1-1.28.3-.28.2-.48.56-.61,1.08l-1.2-.16c.11-.52.29-.93.54-1.25s.61-.56,1.09-.73,1.02-.26,1.65-.26,1.12.07,1.51.22.67.33.85.55.31.5.38.84c.04.21.06.59.06,1.13v1.64c0,1.14.03,1.87.08,2.17.05.3.16.59.31.87h-1.29c-.13-.26-.21-.55-.25-.9ZM302.39,82.61c-.45.18-1.12.34-2.01.46-.51.07-.86.15-1.07.25s-.37.22-.49.4-.17.37-.17.58c0,.33.12.6.37.82.25.22.61.33,1.09.33s.9-.1,1.26-.31.64-.49.81-.85c.13-.28.2-.69.2-1.23v-.45Z"/>
  <path class="cls-1" d="M305.54,86.25v-10.02h1.23v3.6c.57-.67,1.3-1,2.17-1,.54,0,1,.11,1.4.32s.68.5.85.88c.17.37.26.92.26,1.63v4.6h-1.23v-4.6c0-.62-.13-1.06-.4-1.34-.27-.28-.64-.42-1.13-.42-.36,0-.71.09-1.03.28-.32.19-.55.45-.69.77s-.21.77-.21,1.34v3.97h-1.23Z"/>
  <path class="cls-1" d="M318.06,85.36c-.46.39-.89.66-1.32.82-.42.16-.87.24-1.36.24-.8,0-1.41-.19-1.84-.58s-.64-.89-.64-1.49c0-.36.08-.68.24-.97.16-.29.37-.53.64-.71.26-.18.56-.31.88-.4.24-.06.61-.13,1.09-.18.99-.12,1.72-.26,2.19-.42,0-.17,0-.28,0-.32,0-.5-.12-.85-.35-1.06-.31-.28-.78-.42-1.4-.42-.58,0-1.01.1-1.28.3-.28.2-.48.56-.61,1.08l-1.2-.16c.11-.52.29-.93.54-1.25s.61-.56,1.09-.73,1.02-.26,1.65-.26,1.12.07,1.51.22.67.33.85.55.31.5.38.84c.04.21.06.59.06,1.13v1.64c0,1.14.03,1.87.08,2.17.05.3.16.59.31.87h-1.29c-.13-.26-.21-.55-.25-.9ZM317.96,82.61c-.45.18-1.12.34-2.01.46-.51.07-.86.15-1.07.25s-.37.22-.49.4-.17.37-.17.58c0,.33.12.6.37.82.25.22.61.33,1.09.33s.9-.1,1.26-.31.64-.49.81-.85c.13-.28.2-.69.2-1.23v-.45Z"/>
  <path class="cls-1" d="M321.11,86.25v-7.26h1.11v1.03c.53-.8,1.3-1.2,2.31-1.2.44,0,.84.08,1.21.24.37.16.64.36.82.62s.31.56.38.91c.05.23.07.63.07,1.2v4.46h-1.23v-4.42c0-.5-.05-.88-.14-1.12s-.27-.45-.51-.59c-.24-.15-.53-.22-.86-.22-.52,0-.98.17-1.36.5-.38.33-.57.96-.57,1.89v3.96h-1.23Z"/>
  <path class="cls-1" d="M329.22,86.25v-1.4h1.4v1.4c0,.51-.09.93-.27,1.25-.18.32-.47.56-.87.73l-.34-.53c.26-.11.45-.28.57-.5.12-.22.19-.54.21-.95h-.7Z"/>
  <path class="cls-1" d="M336.78,86.25v-10.02h1.33v4.97l4.98-4.97h1.8l-4.2,4.06,4.39,5.96h-1.75l-3.57-5.07-1.64,1.6v3.47h-1.33Z"/>
  <path class="cls-1" d="M350.75,85.36c-.46.39-.89.66-1.32.82-.42.16-.87.24-1.36.24-.8,0-1.41-.19-1.84-.58s-.64-.89-.64-1.49c0-.36.08-.68.24-.97.16-.29.37-.53.64-.71.26-.18.56-.31.88-.4.24-.06.61-.13,1.09-.18.99-.12,1.72-.26,2.19-.42,0-.17,0-.28,0-.32,0-.5-.12-.85-.35-1.06-.31-.28-.78-.42-1.4-.42-.58,0-1.01.1-1.28.3-.28.2-.48.56-.61,1.08l-1.2-.16c.11-.52.29-.93.54-1.25s.61-.56,1.09-.73,1.02-.26,1.65-.26,1.12.07,1.51.22.67.33.85.55.31.5.38.84c.04.21.06.59.06,1.13v1.64c0,1.14.03,1.87.08,2.17.05.3.16.59.31.87h-1.29c-.13-.26-.21-.55-.25-.9ZM350.65,82.61c-.45.18-1.12.34-2.01.46-.51.07-.86.15-1.07.25s-.37.22-.49.4-.17.37-.17.58c0,.33.12.6.37.82.25.22.61.33,1.09.33s.9-.1,1.26-.31.64-.49.81-.85c.13-.28.2-.69.2-1.23v-.45Z"/>
  <path class="cls-1" d="M354.93,86.25h-1.14v-10.02h1.23v3.58c.52-.65,1.18-.98,1.99-.98.45,0,.87.09,1.27.27.4.18.73.43.98.76.26.33.46.72.6,1.18s.22.95.22,1.48c0,1.24-.31,2.21-.92,2.88s-1.35,1.02-2.21,1.02-1.53-.36-2.02-1.07v.91ZM354.92,82.57c0,.87.12,1.5.36,1.89.39.63.91.95,1.57.95.54,0,1-.23,1.39-.7s.59-1.16.59-2.09-.19-1.65-.56-2.1c-.38-.45-.83-.68-1.36-.68s-1,.23-1.39.7-.59,1.14-.59,2.03Z"/>
  <path class="cls-1" d="M366.34,86.25v-1.07c-.57.82-1.33,1.23-2.3,1.23-.43,0-.83-.08-1.2-.25-.37-.16-.65-.37-.83-.62-.18-.25-.31-.55-.38-.91-.05-.24-.08-.62-.08-1.15v-4.5h1.23v4.03c0,.64.03,1.08.08,1.3.08.32.24.58.49.76s.56.28.93.28.72-.09,1.04-.28.55-.45.69-.77c.13-.33.2-.8.2-1.42v-3.89h1.23v7.26h-1.1Z"/>
  <path class="cls-1" d="M369.37,89.04v-10.04h1.12v.94c.26-.37.56-.65.9-.83s.74-.28,1.21-.28c.62,0,1.17.16,1.64.48s.83.77,1.07,1.35.36,1.22.36,1.91c0,.74-.13,1.41-.4,2.01-.27.59-.65,1.05-1.16,1.37-.51.32-1.04.48-1.6.48-.41,0-.78-.09-1.1-.26-.33-.17-.59-.39-.8-.66v3.53h-1.23ZM370.49,82.67c0,.93.19,1.62.57,2.07s.84.67,1.37.67,1.02-.23,1.4-.69c.39-.46.58-1.18.58-2.15s-.19-1.62-.57-2.08c-.38-.46-.83-.69-1.36-.69s-.99.25-1.39.73c-.4.49-.61,1.2-.61,2.14Z"/>
  <path class="cls-1" d="M381.9,85.36c-.46.39-.89.66-1.32.82-.42.16-.87.24-1.36.24-.8,0-1.41-.19-1.84-.58s-.64-.89-.64-1.49c0-.36.08-.68.24-.97.16-.29.37-.53.64-.71.26-.18.56-.31.88-.4.24-.06.61-.13,1.09-.18.99-.12,1.72-.26,2.19-.42,0-.17,0-.28,0-.32,0-.5-.12-.85-.35-1.06-.31-.28-.78-.42-1.4-.42-.58,0-1.01.1-1.28.3-.28.2-.48.56-.61,1.08l-1.2-.16c.11-.52.29-.93.54-1.25s.61-.56,1.09-.73,1.02-.26,1.65-.26,1.12.07,1.51.22.67.33.85.55.31.5.38.84c.04.21.06.59.06,1.13v1.64c0,1.14.03,1.87.08,2.17.05.3.16.59.31.87h-1.29c-.13-.26-.21-.55-.25-.9ZM381.79,82.61c-.45.18-1.12.34-2.01.46-.51.07-.86.15-1.07.25s-.37.22-.49.4-.17.37-.17.58c0,.33.12.6.37.82.25.22.61.33,1.09.33s.9-.1,1.26-.31.64-.49.81-.85c.13-.28.2-.69.2-1.23v-.45Z"/>
  <path class="cls-1" d="M387.63,85.15l.18,1.09c-.35.07-.66.11-.93.11-.45,0-.79-.07-1.04-.21-.25-.14-.42-.33-.52-.56s-.15-.71-.15-1.45v-4.18h-.9v-.96h.9v-1.8l1.22-.74v2.54h1.24v.96h-1.24v4.25c0,.35.02.58.07.68.04.1.11.18.21.24.1.06.24.09.42.09.14,0,.32-.02.54-.05Z"/>
  <path class="cls-1" d="M393.8,83.92l1.27.16c-.2.74-.57,1.32-1.11,1.73s-1.24.62-2.08.62c-1.06,0-1.9-.33-2.53-.98-.62-.65-.93-1.57-.93-2.75s.31-2.17.94-2.84,1.44-1.01,2.45-1.01,1.76.33,2.38.99.92,1.59.92,2.79c0,.07,0,.18,0,.33h-5.41c.05.8.27,1.41.68,1.83s.91.64,1.52.64c.45,0,.84-.12,1.16-.36s.57-.62.76-1.13ZM389.76,81.93h4.05c-.05-.61-.21-1.07-.46-1.37-.39-.47-.9-.71-1.52-.71-.57,0-1.04.19-1.42.57-.39.38-.6.88-.64,1.52Z"/>
  <path class="cls-1" d="M396.62,86.25v-7.26h1.11v1.03c.53-.8,1.3-1.2,2.31-1.2.44,0,.84.08,1.21.24.37.16.64.36.82.62s.31.56.38.91c.05.23.07.63.07,1.2v4.46h-1.23v-4.42c0-.5-.05-.88-.14-1.12s-.27-.45-.51-.59c-.24-.15-.53-.22-.86-.22-.52,0-.98.17-1.36.5-.38.33-.57.96-.57,1.89v3.96h-1.23Z"/>
  <path class="cls-1" d="M408.4,86.25v-10.02h3.76c.77,0,1.38.1,1.84.3.46.2.83.52,1.09.94.26.42.39.86.39,1.32,0,.43-.12.83-.35,1.21s-.58.68-1.05.92c.61.18,1.07.48,1.4.91.33.43.49.93.49,1.52,0,.47-.1.91-.3,1.31-.2.4-.44.71-.73.93s-.66.38-1.1.5c-.44.11-.98.17-1.62.17h-3.82ZM409.72,80.44h2.17c.59,0,1.01-.04,1.26-.12.34-.1.59-.27.76-.5.17-.23.26-.52.26-.88,0-.33-.08-.63-.24-.88s-.39-.43-.68-.52-.8-.14-1.52-.14h-2v3.03ZM409.72,85.07h2.5c.43,0,.73-.02.9-.05.31-.05.56-.15.77-.27s.37-.31.51-.56.2-.53.2-.84c0-.37-.1-.7-.29-.97s-.46-.47-.8-.58c-.34-.11-.83-.17-1.47-.17h-2.32v3.45Z"/>
  <path class="cls-1" d="M422.37,85.36c-.46.39-.89.66-1.32.82-.42.16-.87.24-1.36.24-.8,0-1.41-.19-1.84-.58s-.64-.89-.64-1.49c0-.36.08-.68.24-.97.16-.29.37-.53.64-.71.26-.18.56-.31.88-.4.24-.06.61-.13,1.09-.18.99-.12,1.72-.26,2.19-.42,0-.17,0-.28,0-.32,0-.5-.12-.85-.35-1.06-.31-.28-.78-.42-1.4-.42-.58,0-1.01.1-1.28.3-.28.2-.48.56-.61,1.08l-1.2-.16c.11-.52.29-.93.54-1.25s.61-.56,1.09-.73,1.02-.26,1.65-.26,1.12.07,1.51.22.67.33.85.55.31.5.38.84c.04.21.06.59.06,1.13v1.64c0,1.14.03,1.87.08,2.17.05.3.16.59.31.87h-1.29c-.13-.26-.21-.55-.25-.9ZM422.27,82.61c-.45.18-1.12.34-2.01.46-.51.07-.86.15-1.07.25s-.37.22-.49.4-.17.37-.17.58c0,.33.12.6.37.82.25.22.61.33,1.09.33s.9-.1,1.26-.31.64-.49.81-.85c.13-.28.2-.69.2-1.23v-.45Z"/>
  <path class="cls-1" d="M425.41,86.25v-7.26h1.11v1.1c.28-.52.54-.85.78-1.02.24-.16.5-.25.79-.25.42,0,.84.13,1.26.4l-.42,1.14c-.3-.18-.6-.27-.9-.27-.27,0-.51.08-.72.24s-.37.39-.46.67c-.14.44-.21.92-.21,1.44v3.8h-1.23Z"/>
  <path class="cls-1" d="M430.09,77.65v-1.42h1.23v1.42h-1.23ZM430.09,86.25v-7.26h1.23v7.26h-1.23Z"/>
  <path class="cls-1" d="M435.88,85.15l.18,1.09c-.35.07-.66.11-.93.11-.45,0-.79-.07-1.04-.21-.25-.14-.42-.33-.52-.56s-.15-.71-.15-1.45v-4.18h-.9v-.96h.9v-1.8l1.22-.74v2.54h1.24v.96h-1.24v4.25c0,.35.02.58.07.68.04.1.11.18.21.24.1.06.24.09.42.09.14,0,.32-.02.54-.05Z"/>
  <path class="cls-1" d="M436.62,82.62c0-1.34.37-2.34,1.12-2.99.62-.54,1.39-.81,2.28-.81,1,0,1.81.33,2.45.98s.95,1.56.95,2.71c0,.93-.14,1.67-.42,2.2-.28.54-.69.95-1.22,1.25-.54.3-1.12.44-1.75.44-1.02,0-1.84-.33-2.46-.98-.63-.65-.94-1.59-.94-2.82ZM437.89,82.62c0,.93.2,1.63.61,2.09s.92.69,1.53.69,1.12-.23,1.52-.7.61-1.17.61-2.13c0-.9-.2-1.58-.61-2.04-.41-.46-.92-.69-1.52-.69s-1.13.23-1.53.69-.61,1.16-.61,2.08Z"/>
  <path class="cls-1" d="M448.86,86.25v-10.02h1.33v4.97l4.98-4.97h1.8l-4.2,4.06,4.39,5.96h-1.75l-3.57-5.07-1.64,1.6v3.47h-1.33Z"/>
  <path class="cls-1" d="M462.85,86.25v-1.07c-.57.82-1.33,1.23-2.3,1.23-.43,0-.83-.08-1.2-.25-.37-.16-.65-.37-.83-.62-.18-.25-.31-.55-.38-.91-.05-.24-.08-.62-.08-1.15v-4.5h1.23v4.03c0,.64.03,1.08.08,1.3.08.32.24.58.49.76s.56.28.93.28.72-.09,1.04-.28.55-.45.69-.77c.13-.33.2-.8.2-1.42v-3.89h1.23v7.26h-1.1Z"/>
  <path class="cls-1" d="M470.62,85.36c-.46.39-.89.66-1.32.82-.42.16-.87.24-1.36.24-.8,0-1.41-.19-1.84-.58s-.64-.89-.64-1.49c0-.36.08-.68.24-.97.16-.29.37-.53.64-.71.26-.18.56-.31.88-.4.24-.06.61-.13,1.09-.18.99-.12,1.72-.26,2.19-.42,0-.17,0-.28,0-.32,0-.5-.12-.85-.35-1.06-.31-.28-.78-.42-1.4-.42-.58,0-1.01.1-1.28.3-.28.2-.48.56-.61,1.08l-1.2-.16c.11-.52.29-.93.54-1.25s.61-.56,1.09-.73,1.02-.26,1.65-.26,1.12.07,1.51.22.67.33.85.55.31.5.38.84c.04.21.06.59.06,1.13v1.64c0,1.14.03,1.87.08,2.17.05.3.16.59.31.87h-1.29c-.13-.26-.21-.55-.25-.9ZM470.52,82.61c-.45.18-1.12.34-2.01.46-.51.07-.86.15-1.07.25s-.37.22-.49.4-.17.37-.17.58c0,.33.12.6.37.82.25.22.61.33,1.09.33s.9-.1,1.26-.31.64-.49.81-.85c.13-.28.2-.69.2-1.23v-.45Z"/>
  <path class="cls-1" d="M473.64,86.25v-10.02h1.23v10.02h-1.23Z"/>
  <path class="cls-1" d="M481.51,85.36c-.46.39-.89.66-1.32.82-.42.16-.87.24-1.36.24-.8,0-1.41-.19-1.84-.58s-.64-.89-.64-1.49c0-.36.08-.68.24-.97.16-.29.37-.53.64-.71.26-.18.56-.31.88-.4.24-.06.61-.13,1.09-.18.99-.12,1.72-.26,2.19-.42,0-.17,0-.28,0-.32,0-.5-.12-.85-.35-1.06-.31-.28-.78-.42-1.4-.42-.58,0-1.01.1-1.28.3-.28.2-.48.56-.61,1.08l-1.2-.16c.11-.52.29-.93.54-1.25s.61-.56,1.09-.73,1.02-.26,1.65-.26,1.12.07,1.51.22.67.33.85.55.31.5.38.84c.04.21.06.59.06,1.13v1.64c0,1.14.03,1.87.08,2.17.05.3.16.59.31.87h-1.29c-.13-.26-.21-.55-.25-.9ZM481.41,82.61c-.45.18-1.12.34-2.01.46-.51.07-.86.15-1.07.25s-.37.22-.49.4-.17.37-.17.58c0,.33.12.6.37.82.25.22.61.33,1.09.33s.9-.1,1.26-.31.64-.49.81-.85c.13-.28.2-.69.2-1.23v-.45Z"/>
  <path class="cls-1" d="M180.75,103.05v-10.02h1.33v4.97l4.98-4.97h1.8l-4.2,4.06,4.39,5.96h-1.75l-3.57-5.07-1.64,1.6v3.47h-1.33Z"/>
  <path class="cls-1" d="M194.72,102.16c-.46.39-.89.66-1.32.82s-.87.24-1.36.24c-.8,0-1.41-.2-1.84-.58-.43-.39-.64-.89-.64-1.49,0-.36.08-.68.24-.97.16-.29.37-.53.64-.71s.56-.31.89-.4c.24-.06.61-.12,1.09-.18.99-.12,1.73-.26,2.19-.42,0-.17,0-.28,0-.32,0-.5-.12-.85-.35-1.06-.31-.28-.78-.42-1.4-.42-.58,0-1.01.1-1.28.3-.28.2-.48.56-.61,1.08l-1.2-.16c.11-.51.29-.93.54-1.25.25-.32.61-.56,1.09-.73.47-.17,1.02-.26,1.65-.26s1.12.07,1.51.22.67.33.85.55c.18.22.31.5.38.84.04.21.06.59.06,1.13v1.64c0,1.14.03,1.87.08,2.17.05.3.16.59.31.87h-1.29c-.13-.25-.21-.55-.25-.9ZM194.62,99.41c-.45.18-1.12.34-2.01.46-.51.07-.86.16-1.07.25s-.37.22-.49.4c-.11.18-.17.37-.17.58,0,.33.12.6.37.82s.61.33,1.09.33.9-.1,1.26-.31c.37-.21.64-.49.81-.85.13-.28.2-.69.2-1.23v-.45Z"/>
  <path class="cls-1" d="M197.74,103.05v-10.02h1.23v10.02h-1.23Z"/>
  <path class="cls-1" d="M200.89,94.45v-1.42h1.23v1.42h-1.23ZM200.89,103.05v-7.26h1.23v7.26h-1.23Z"/>
  <path class="cls-1" d="M203.99,103.05v-7.26h1.1v1.02c.23-.36.53-.64.91-.86.38-.22.81-.32,1.29-.32.54,0,.98.11,1.32.33s.59.54.73.94c.57-.85,1.32-1.27,2.24-1.27.72,0,1.27.2,1.66.6.39.4.58,1.01.58,1.84v4.98h-1.22v-4.57c0-.49-.04-.85-.12-1.06-.08-.22-.22-.39-.43-.52s-.46-.2-.74-.2c-.51,0-.93.17-1.27.51-.34.34-.51.88-.51,1.63v4.22h-1.23v-4.72c0-.55-.1-.96-.3-1.23s-.53-.41-.98-.41c-.35,0-.67.09-.96.27s-.51.45-.64.8-.2.86-.2,1.52v3.77h-1.23Z"/>
  <path class="cls-1" d="M220.39,102.16c-.46.39-.89.66-1.32.82s-.87.24-1.36.24c-.8,0-1.41-.2-1.84-.58-.43-.39-.64-.89-.64-1.49,0-.36.08-.68.24-.97.16-.29.37-.53.64-.71s.56-.31.89-.4c.24-.06.61-.12,1.09-.18.99-.12,1.73-.26,2.19-.42,0-.17,0-.28,0-.32,0-.5-.12-.85-.35-1.06-.31-.28-.78-.42-1.4-.42-.58,0-1.01.1-1.28.3-.28.2-.48.56-.61,1.08l-1.2-.16c.11-.51.29-.93.54-1.25.25-.32.61-.56,1.09-.73.47-.17,1.02-.26,1.65-.26s1.12.07,1.51.22.67.33.85.55c.18.22.31.5.38.84.04.21.06.59.06,1.13v1.64c0,1.14.03,1.87.08,2.17.05.3.16.59.31.87h-1.29c-.13-.25-.21-.55-.25-.9ZM220.29,99.41c-.45.18-1.12.34-2.01.46-.51.07-.86.16-1.07.25s-.37.22-.49.4c-.11.18-.17.37-.17.58,0,.33.12.6.37.82s.61.33,1.09.33.9-.1,1.26-.31c.37-.21.64-.49.81-.85.13-.28.2-.69.2-1.23v-.45Z"/>
  <path class="cls-1" d="M223.44,103.05v-7.26h1.11v1.03c.53-.8,1.3-1.2,2.31-1.2.44,0,.84.08,1.21.24.37.16.64.36.82.62s.31.56.38.91c.05.23.07.63.07,1.2v4.46h-1.23v-4.42c0-.5-.05-.88-.14-1.12-.1-.25-.27-.45-.51-.59-.24-.15-.53-.22-.86-.22-.52,0-.98.17-1.36.5s-.57.96-.57,1.89v3.96h-1.23Z"/>
  <path class="cls-1" d="M233.91,101.95l.18,1.09c-.35.07-.66.11-.93.11-.45,0-.79-.07-1.04-.21s-.42-.33-.52-.56c-.1-.23-.15-.71-.15-1.45v-4.18h-.9v-.96h.9v-1.8l1.22-.74v2.54h1.24v.96h-1.24v4.25c0,.35.02.58.06.68s.11.18.21.24.24.09.42.09c.14,0,.32-.02.54-.05Z"/>
  <path class="cls-1" d="M239.85,102.16c-.46.39-.89.66-1.32.82s-.87.24-1.36.24c-.8,0-1.41-.2-1.84-.58-.43-.39-.64-.89-.64-1.49,0-.36.08-.68.24-.97.16-.29.37-.53.64-.71s.56-.31.89-.4c.24-.06.61-.12,1.09-.18.99-.12,1.73-.26,2.19-.42,0-.17,0-.28,0-.32,0-.5-.12-.85-.35-1.06-.31-.28-.78-.42-1.4-.42-.58,0-1.01.1-1.28.3-.28.2-.48.56-.61,1.08l-1.2-.16c.11-.51.29-.93.54-1.25.25-.32.61-.56,1.09-.73.47-.17,1.02-.26,1.65-.26s1.12.07,1.51.22.67.33.85.55c.18.22.31.5.38.84.04.21.06.59.06,1.13v1.64c0,1.14.03,1.87.08,2.17.05.3.16.59.31.87h-1.29c-.13-.25-.21-.55-.25-.9ZM239.75,99.41c-.45.18-1.12.34-2.01.46-.51.07-.86.16-1.07.25s-.37.22-.49.4c-.11.18-.17.37-.17.58,0,.33.12.6.37.82s.61.33,1.09.33.9-.1,1.26-.31c.37-.21.64-.49.81-.85.13-.28.2-.69.2-1.23v-.45Z"/>
  <path class="cls-1" d="M242.9,103.05v-7.26h1.11v1.03c.53-.8,1.3-1.2,2.31-1.2.44,0,.84.08,1.21.24.37.16.64.36.82.62s.31.56.38.91c.05.23.07.63.07,1.2v4.46h-1.23v-4.42c0-.5-.05-.88-.14-1.12-.1-.25-.27-.45-.51-.59-.24-.15-.53-.22-.86-.22-.52,0-.98.17-1.36.5s-.57.96-.57,1.89v3.96h-1.23Z"/>
  <path class="cls-1" d="M254.28,99.83l1.25-.11c.06.5.2.91.41,1.23.22.32.55.58,1.01.78.46.2.97.3,1.54.3.51,0,.95-.08,1.34-.23s.68-.36.86-.62c.19-.26.28-.55.28-.86s-.09-.59-.27-.82c-.18-.23-.48-.43-.9-.59-.27-.1-.86-.27-1.78-.49-.92-.22-1.57-.43-1.93-.62-.48-.25-.83-.56-1.07-.93-.23-.37-.35-.79-.35-1.25,0-.51.14-.98.43-1.42.29-.44.71-.77,1.26-1s1.16-.34,1.84-.34c.74,0,1.4.12,1.97.36.57.24,1,.59,1.31,1.06s.47.99.49,1.58l-1.27.1c-.07-.63-.3-1.11-.69-1.44s-.98-.49-1.75-.49-1.39.15-1.75.44c-.37.29-.55.65-.55,1.06,0,.36.13.66.39.89.26.23.92.47,2,.71,1.08.24,1.82.46,2.22.64.58.27,1.01.61,1.29,1.02.28.41.42.89.42,1.43s-.15,1.04-.46,1.51c-.31.47-.74.84-1.32,1.1-.57.26-1.22.39-1.93.39-.91,0-1.67-.13-2.28-.4s-1.09-.66-1.44-1.19c-.35-.53-.53-1.13-.55-1.8Z"/>
  <path class="cls-1" d="M268.88,100.72l1.27.16c-.2.74-.57,1.32-1.11,1.73s-1.24.62-2.08.62c-1.06,0-1.9-.33-2.53-.98-.62-.65-.93-1.57-.93-2.75s.31-2.17.94-2.84,1.44-1.01,2.45-1.01,1.76.33,2.38.99.92,1.59.92,2.79c0,.07,0,.18,0,.33h-5.41c.05.8.27,1.41.68,1.83s.91.64,1.52.64c.45,0,.84-.12,1.16-.36s.57-.62.76-1.13ZM264.84,98.73h4.05c-.05-.61-.21-1.07-.46-1.37-.39-.47-.9-.71-1.52-.71-.57,0-1.04.19-1.42.57-.39.38-.6.88-.64,1.52Z"/>
  <path class="cls-1" d="M271.67,103.05v-10.02h1.23v10.02h-1.23Z"/>
  <path class="cls-1" d="M279.55,102.16c-.46.39-.89.66-1.32.82-.42.16-.87.24-1.36.24-.8,0-1.41-.2-1.84-.58-.43-.39-.64-.89-.64-1.49,0-.36.08-.68.24-.97.16-.29.37-.53.64-.71.26-.18.56-.31.88-.4.24-.06.61-.12,1.09-.18.99-.12,1.72-.26,2.19-.42,0-.17,0-.28,0-.32,0-.5-.12-.85-.35-1.06-.31-.28-.78-.42-1.4-.42-.58,0-1.01.1-1.28.3-.28.2-.48.56-.61,1.08l-1.2-.16c.11-.51.29-.93.54-1.25.25-.32.61-.56,1.09-.73.47-.17,1.02-.26,1.65-.26s1.12.07,1.51.22.67.33.85.55c.18.22.31.5.38.84.04.21.06.59.06,1.13v1.64c0,1.14.03,1.87.08,2.17.05.3.16.59.31.87h-1.29c-.13-.25-.21-.55-.25-.9ZM279.45,99.41c-.45.18-1.12.34-2.01.46-.51.07-.86.16-1.07.25s-.37.22-.49.4c-.11.18-.17.37-.17.58,0,.33.12.6.37.82.25.22.61.33,1.09.33s.9-.1,1.26-.31c.37-.21.64-.49.81-.85.13-.28.2-.69.2-1.23v-.45Z"/>
  <path class="cls-1" d="M285.28,101.95l.18,1.09c-.35.07-.66.11-.93.11-.45,0-.79-.07-1.04-.21s-.42-.33-.52-.56c-.1-.23-.15-.71-.15-1.45v-4.18h-.9v-.96h.9v-1.8l1.22-.74v2.54h1.24v.96h-1.24v4.25c0,.35.02.58.07.68.04.1.11.18.21.24.1.06.24.09.42.09.14,0,.32-.02.54-.05Z"/>
  <path class="cls-1" d="M291.22,102.16c-.46.39-.89.66-1.32.82-.42.16-.87.24-1.36.24-.8,0-1.41-.2-1.84-.58-.43-.39-.64-.89-.64-1.49,0-.36.08-.68.24-.97.16-.29.37-.53.64-.71.26-.18.56-.31.88-.4.24-.06.61-.12,1.09-.18.99-.12,1.72-.26,2.19-.42,0-.17,0-.28,0-.32,0-.5-.12-.85-.35-1.06-.31-.28-.78-.42-1.4-.42-.58,0-1.01.1-1.28.3-.28.2-.48.56-.61,1.08l-1.2-.16c.11-.51.29-.93.54-1.25.25-.32.61-.56,1.09-.73.47-.17,1.02-.26,1.65-.26s1.12.07,1.51.22.67.33.85.55c.18.22.31.5.38.84.04.21.06.59.06,1.13v1.64c0,1.14.03,1.87.08,2.17.05.3.16.59.31.87h-1.29c-.13-.25-.21-.55-.25-.9ZM291.12,99.41c-.45.18-1.12.34-2.01.46-.51.07-.86.16-1.07.25s-.37.22-.49.4c-.11.18-.17.37-.17.58,0,.33.12.6.37.82.25.22.61.33,1.09.33s.9-.1,1.26-.31c.37-.21.64-.49.81-.85.13-.28.2-.69.2-1.23v-.45Z"/>
  <path class="cls-1" d="M294.27,103.05v-7.26h1.11v1.03c.53-.8,1.3-1.2,2.31-1.2.44,0,.84.08,1.21.24.37.16.64.36.82.62s.31.56.38.91c.05.23.07.63.07,1.2v4.46h-1.23v-4.42c0-.5-.05-.88-.14-1.12-.1-.25-.27-.45-.51-.59-.24-.15-.53-.22-.86-.22-.52,0-.98.17-1.36.5-.38.33-.57.96-.57,1.89v3.96h-1.23Z"/>
  <path class="cls-1" d="M305.69,94.35v-1.18h6.49v.96c-.64.68-1.27,1.58-1.9,2.71-.63,1.13-1.11,2.28-1.45,3.47-.25.84-.4,1.76-.47,2.75h-1.26c.01-.79.17-1.74.46-2.86s.72-2.19,1.28-3.23c.55-1.04,1.14-1.91,1.77-2.62h-4.91Z"/>
  <path class="cls-1" d="M313.39,98.11c0-1.18.12-2.14.37-2.86.24-.72.61-1.28,1.09-1.67.48-.39,1.09-.59,1.82-.59.54,0,1.01.11,1.42.32.41.22.74.53,1,.94.26.41.47.9.62,1.49.15.58.23,1.38.23,2.37,0,1.18-.12,2.12-.36,2.85-.24.72-.6,1.28-1.08,1.68-.48.39-1.09.59-1.82.59-.97,0-1.72-.35-2.28-1.04-.66-.83-.99-2.19-.99-4.07ZM314.66,98.11c0,1.65.19,2.74.58,3.28.38.54.86.82,1.42.82s1.04-.27,1.42-.82c.39-.55.58-1.64.58-3.28s-.19-2.75-.58-3.29c-.38-.54-.86-.81-1.44-.81s-1.02.24-1.35.72c-.42.61-.64,1.74-.64,3.38Z"/>
  <path class="cls-1" d="M321.18,100.43l1.29-.11c.1.63.32,1.1.67,1.42.35.32.77.48,1.26.48.59,0,1.09-.22,1.5-.67s.62-1.04.62-1.78-.2-1.26-.59-1.66c-.39-.41-.91-.61-1.55-.61-.4,0-.75.09-1.07.27-.32.18-.57.41-.75.7l-1.16-.15.97-5.15h4.98v1.18h-4l-.54,2.69c.6-.42,1.23-.63,1.89-.63.88,0,1.61.3,2.21.91s.9,1.39.9,2.34-.26,1.69-.79,2.35c-.64.81-1.52,1.22-2.63,1.22-.91,0-1.66-.25-2.23-.77-.58-.51-.91-1.19-.99-2.03Z"/>
  <path class="cls-1" d="M333.6,103.05h-1.23v-7.84c-.3.28-.68.57-1.17.85-.48.28-.91.49-1.3.64v-1.19c.69-.32,1.29-.72,1.8-1.18s.88-.91,1.09-1.34h.79v10.06Z"/>
  <path class="cls-1" d="M336.76,100.41l1.23-.16c.14.7.38,1.2.72,1.51.34.31.75.46,1.24.46.58,0,1.07-.2,1.47-.6.4-.4.6-.9.6-1.49s-.18-1.03-.55-1.4c-.37-.37-.84-.55-1.41-.55-.23,0-.52.05-.87.14l.14-1.08c.08,0,.15.01.2.01.52,0,1-.14,1.42-.41s.63-.7.63-1.26c0-.45-.15-.83-.46-1.12s-.7-.44-1.18-.44-.88.15-1.2.45-.52.75-.62,1.35l-1.23-.22c.15-.83.49-1.46,1.03-1.92.53-.45,1.2-.68,1.99-.68.55,0,1.05.12,1.51.35.46.24.81.56,1.06.96.24.41.37.84.37,1.29,0,.43-.12.83-.35,1.18s-.58.64-1.03.85c.59.14,1.05.42,1.38.85.33.43.49.97.49,1.62,0,.88-.32,1.62-.96,2.23-.64.61-1.44.91-2.42.91-.88,0-1.61-.26-2.19-.79-.58-.52-.91-1.2-.99-2.04Z"/>
  <rect class="cls-1" y="113.03" width="523.9" height="2"/>
</svg>